<?xml version="1.0" standalone="no"?>
<!DOCTYPE svg PUBLIC "-//W3C//DTD SVG 20010904//EN"
 "http://www.w3.org/TR/2001/REC-SVG-20010904/DTD/svg10.dtd">
<svg version="1.0" xmlns="http://www.w3.org/2000/svg"
 width="300.000000pt" height="300.000000pt" viewBox="0 0 300.000000 300.000000"
 preserveAspectRatio="xMidYMid meet">
<metadata>
Created by potrace 1.16, written by Peter Selinger 2001-2019
</metadata>
<g transform="translate(0.000000,300.000000) scale(0.100000,-0.100000)"
fill="#000000" stroke="none">
<path d="M1765 2270 c-11 -4 -42 -14 -68 -21 -30 -7 -44 -15 -36 -20 8 -5 4
-8 -11 -11 -13 -1 -25 -8 -27 -15 -7 -20 58 -26 105 -9 23 8 42 11 42 7 0 -5
-20 -14 -44 -20 -55 -13 -65 -27 -32 -42 21 -10 29 -8 52 10 15 11 34 21 43
21 13 0 13 2 3 9 -11 7 -11 9 2 14 8 3 17 1 19 -6 2 -7 8 -9 12 -5 5 5 3 19
-3 32 -9 20 -9 24 2 20 8 -3 17 -1 20 5 4 6 -9 13 -29 17 -19 3 -32 10 -29 15
6 10 6 10 -21 -1z"/>
<path d="M1704 2010 c-32 -13 -72 -66 -85 -112 -10 -40 -9 -67 6 -116 12 -38
-21 -16 -38 26 l-15 37 -8 -29 c-5 -23 -3 -32 12 -43 10 -7 26 -19 34 -26 39
-32 114 10 162 91 37 62 38 123 3 157 -26 26 -37 29 -71 15z m64 -53 c24 -32
-3 -127 -42 -145 -40 -19 -55 -21 -66 -7 -14 16 -21 85 -9 85 5 0 8 3 8 8 -6
39 41 82 86 78 6 -1 16 -9 23 -19z"/>
<path d="M1458 1798 c-19 -35 -16 -137 5 -177 20 -41 21 -44 5 -36 -7 4 1 -7
19 -24 37 -35 97 -54 142 -45 30 6 54 24 32 24 -5 0 -8 9 -6 21 3 15 0 19 -10
15 -9 -3 -15 1 -15 9 0 8 -5 15 -12 15 -9 0 -9 3 0 12 8 8 7 19 -6 42 -9 17
-21 33 -26 35 -5 2 -17 12 -26 21 -18 18 -19 17 -34 -15 -9 -18 -16 -38 -16
-44 0 -22 -17 -10 -36 24 -15 28 -16 37 -6 44 10 6 16 101 6 101 -2 0 -9 -10
-16 -22z"/>
<path d="M1034 1799 c-38 -11 -79 -51 -106 -102 -21 -43 -27 -43 -30 -5 -2 22
-5 25 -23 18 -54 -22 -125 -61 -125 -69 0 -19 49 -41 80 -35 25 6 29 4 24 -10
-3 -9 0 -23 7 -32 21 -26 100 -68 107 -57 4 5 18 10 32 10 42 0 53 6 97 51 51
51 70 109 54 162 -18 61 -60 85 -117 69z m56 -41 c0 -5 4 -7 9 -3 8 4 25 -29
23 -45 0 -3 4 -11 10 -17 8 -9 7 -13 -3 -13 -11 0 -11 -2 1 -10 8 -5 10 -10 4
-10 -7 0 -15 -12 -18 -26 -7 -28 -50 -76 -60 -67 -3 4 -6 2 -6 -4 0 -5 -7 -10
-15 -10 -8 0 -15 5 -15 11 0 6 -5 4 -10 -4 -7 -11 -10 -11 -10 -2 0 8 -5 10
-12 6 -8 -5 -9 -2 -4 11 5 14 3 15 -6 7 -10 -8 -13 0 -13 39 0 27 4 49 8 49 5
0 5 5 2 10 -3 6 -1 10 5 10 6 0 8 5 5 10 -7 12 20 42 29 33 3 -4 6 1 6 10 0
10 7 15 20 12 11 -2 20 0 20 4 0 4 7 8 15 8 8 0 15 -4 15 -9z"/>
</g>
</svg>
