<?xml version="1.0" standalone="no"?>
<!DOCTYPE svg PUBLIC "-//W3C//DTD SVG 20010904//EN"
 "http://www.w3.org/TR/2001/REC-SVG-20010904/DTD/svg10.dtd">
<svg version="1.0" xmlns="http://www.w3.org/2000/svg"
 width="300.000000pt" height="300.000000pt" viewBox="0 0 300.000000 300.000000"
 preserveAspectRatio="xMidYMid meet">
<metadata>
Created by potrace 1.16, written by Peter Selinger 2001-2019
</metadata>
<g transform="translate(0.000000,300.000000) scale(0.100000,-0.100000)"
fill="#000000" stroke="none">
<path d="M153 1998 c4 -73 12 -299 18 -503 6 -203 14 -383 18 -400 6 -25 15
-32 63 -47 49 -15 63 -15 115 -4 32 8 84 16 115 19 47 5 59 2 74 -14 24 -27
41 -24 145 21 88 39 94 40 164 34 89 -8 156 7 221 48 45 28 53 30 130 26 74
-3 85 -1 101 18 15 18 20 19 29 6 14 -19 58 -7 50 14 -3 8 -2 13 3 9 5 -3 11
-2 14 2 2 5 2 3 1 -4 -2 -7 14 -4 41 8 36 16 57 18 107 13 47 -5 73 -2 102 10
21 9 41 16 45 16 3 0 7 -19 8 -43 6 -149 127 -302 274 -348 113 -35 188 -23
319 53 l72 41 35 -17 c32 -15 37 -15 59 -1 14 9 24 25 24 40 0 22 3 23 38 17
20 -4 55 -7 76 -7 35 0 40 3 50 32 6 17 32 50 59 73 51 46 91 107 102 156 7
35 -12 91 -37 112 -13 11 -11 17 18 47 127 136 13 293 -283 391 -182 60 -418
104 -556 104 l-87 0 6 43 c4 23 10 46 15 52 29 31 -13 76 -69 74 -20 -1 -107
1 -192 5 -85 3 -258 8 -384 11 -126 3 -232 7 -235 9 -3 2 -201 7 -440 11
l-434 7 6 -134z m719 61 c35 -18 90 -103 124 -191 14 -37 30 -68 35 -68 10 0
11 6 13 59 0 19 6 36 13 38 18 6 33 -30 40 -97 4 -41 10 -60 19 -60 8 0 14 3
14 8 1 4 10 18 21 31 19 23 20 23 34 5 11 -14 13 -33 9 -69 -9 -71 -29 -113
-77 -162 -23 -23 -49 -50 -58 -60 -9 -10 -30 -26 -48 -35 -27 -15 -30 -21 -21
-37 5 -11 10 -27 10 -37 0 -14 -6 -15 -37 -9 -21 4 -51 6 -66 6 -25 -1 -117
52 -117 68 0 3 -3 16 -6 28 -5 20 -3 21 28 13 18 -4 41 -11 51 -15 9 -4 17 -5
17 -1 0 10 -35 81 -46 93 -9 10 -13 7 -18 -12 -3 -13 -16 -29 -27 -36 -27 -14
-52 8 -79 68 -17 40 -18 47 -4 85 13 37 13 43 -2 60 -11 12 -17 34 -16 66 1
57 -22 100 -44 81 -22 -18 -16 3 14 52 50 78 175 175 192 150 3 -5 17 -14 32
-22z m676 -5 c-3 -3 5 -17 19 -32 14 -15 39 -57 56 -94 18 -38 35 -68 40 -68
4 0 10 14 14 31 6 29 7 30 19 14 7 -10 16 -37 20 -61 7 -50 16 -60 34 -39 25
30 32 15 28 -54 -3 -60 -7 -73 -36 -105 -35 -40 -37 -48 -22 -75 7 -15 4 -20
-16 -30 -14 -6 -29 -9 -34 -6 -20 12 -36 -7 -32 -39 l4 -34 -46 2 c-63 3 -120
51 -163 137 -26 53 -31 75 -30 125 1 45 -3 65 -15 77 -15 16 -17 16 -21 0 -2
-10 -3 -7 -1 7 1 14 12 51 24 83 24 63 113 167 145 167 10 0 16 -3 13 -6z
m512 -229 c208 -17 534 -121 629 -201 69 -58 61 -101 -27 -140 -44 -19 -66
-23 -97 -18 -55 9 -57 11 -41 49 13 31 13 35 -8 54 -18 17 -28 20 -47 13 -13
-5 -31 -6 -39 -2 -73 35 -133 60 -143 60 -6 -1 3 -7 22 -15 28 -13 31 -17 21
-30 -7 -8 -16 -12 -21 -9 -13 7 -80 -7 -74 -16 3 -4 -21 3 -53 16 -31 13 -65
24 -74 24 -34 0 -18 19 25 28 23 6 33 10 22 11 -27 1 -119 -24 -162 -44 -19
-9 -51 -18 -71 -20 l-37 -3 0 129 0 128 58 -4 c31 -3 84 -7 117 -10z m157
-288 c82 -52 145 -138 163 -224 8 -37 7 -65 -4 -119 -16 -77 -54 -184 -64
-184 -4 0 -23 -15 -42 -33 -20 -17 -42 -34 -50 -37 -34 -10 -209 -5 -221 7 -9
9 1 12 47 10 147 -4 244 95 244 247 0 201 -182 342 -361 281 l-44 -15 24 20
c13 11 19 20 13 20 -5 0 -12 6 -15 13 -3 8 5 13 22 14 21 1 23 0 7 -6 -17 -6
-17 -8 -4 -14 17 -6 68 13 68 25 0 4 6 5 14 2 7 -3 16 1 18 8 4 9 26 13 74 12
56 -1 77 -6 111 -27z"/>
</g>
</svg>
