<?xml version="1.0" standalone="no"?>
<!DOCTYPE svg PUBLIC "-//W3C//DTD SVG 20010904//EN"
 "http://www.w3.org/TR/2001/REC-SVG-20010904/DTD/svg10.dtd">
<svg version="1.0" xmlns="http://www.w3.org/2000/svg"
 width="300.000000pt" height="300.000000pt" viewBox="0 0 300.000000 300.000000"
 preserveAspectRatio="xMidYMid meet">
<metadata>
Created by potrace 1.16, written by Peter Selinger 2001-2019
</metadata>
<g transform="translate(0.000000,300.000000) scale(0.100000,-0.100000)"
fill="#000000" stroke="none">
<path d="M1180 2489 c-30 -11 -149 -53 -265 -93 -525 -183 -711 -250 -722
-260 -10 -9 -11 -112 -4 -466 5 -250 11 -462 15 -470 8 -19 1392 -614 1411
-607 11 5 560 395 852 607 l101 74 7 90 c4 50 7 148 8 218 1 70 5 127 8 125 3
-1 43 -42 89 -92 47 -49 87 -91 90 -93 3 -1 7 48 7 110 1 103 0 115 -20 138
-14 15 -15 19 -4 11 20 -16 37 -7 20 10 -6 6 -9 17 -7 24 10 25 -24 37 -96 33
-38 -1 -70 0 -70 3 0 11 113 17 144 8 24 -7 27 -6 17 4 -8 8 -40 12 -89 11
-59 -1 -71 1 -52 8 14 5 53 8 88 6 72 -5 80 8 30 45 -36 26 -121 67 -139 67
-9 0 -10 25 -6 93 4 50 3 97 -1 103 -9 14 -803 200 -997 234 -27 5 -61 11 -75
14 -14 2 -46 7 -72 11 -27 3 -48 11 -48 16 0 6 -5 7 -11 3 -6 -3 -14 -3 -18 2
-7 10 -92 34 -119 34 -9 -1 -42 -10 -72 -21z"/>
</g>
</svg>
