<?xml version="1.0" standalone="no"?>
<!DOCTYPE svg PUBLIC "-//W3C//DTD SVG 20010904//EN"
 "http://www.w3.org/TR/2001/REC-SVG-20010904/DTD/svg10.dtd">
<svg version="1.0" xmlns="http://www.w3.org/2000/svg"
 width="300.000000pt" height="300.000000pt" viewBox="0 0 300.000000 300.000000"
 preserveAspectRatio="xMidYMid meet">
<metadata>
Created by potrace 1.16, written by Peter Selinger 2001-2019
</metadata>
<g transform="translate(0.000000,300.000000) scale(0.100000,-0.100000)"
fill="#000000" stroke="none">
<path d="M1300 2192 c0 -4 -19 -6 -42 -4 -24 2 -194 -4 -378 -12 -184 -9 -413
-19 -507 -23 -193 -7 -173 2 -179 -83 -7 -112 -3 -965 4 -972 5 -5 94 -31 198
-58 104 -26 302 -78 439 -115 138 -37 297 -80 355 -95 l105 -28 330 50 c182
27 398 60 480 73 83 13 206 33 275 44 69 11 188 27 265 36 77 10 143 22 146
27 19 30 25 1105 7 1123 -3 4 -269 13 -590 20 -321 8 -656 16 -745 19 -90 3
-163 2 -163 -2z m1159 -146 c12 -14 10 -50 -4 -91 -4 -11 -3 -16 2 -10 14 17
50 17 56 0 4 -8 13 -15 20 -15 36 0 49 -121 19 -170 -26 -42 -54 -60 -84 -54
-16 3 -28 3 -28 1 0 -18 15 -37 29 -37 37 -1 -16 -19 -62 -21 -31 -2 -47 -7
-47 -16 0 -12 48 -19 89 -14 7 2 10 -2 6 -8 -3 -6 -1 -11 6 -11 10 0 10 -3 1
-12 -19 -19 -461 -50 -484 -34 -18 13 -441 483 -446 497 -2 5 192 9 456 9 387
0 461 -2 471 -14z"/>
</g>
</svg>
