<?xml version="1.0" standalone="no"?>
<!DOCTYPE svg PUBLIC "-//W3C//DTD SVG 20010904//EN"
 "http://www.w3.org/TR/2001/REC-SVG-20010904/DTD/svg10.dtd">
<svg version="1.0" xmlns="http://www.w3.org/2000/svg"
 width="300.000000pt" height="300.000000pt" viewBox="0 0 300.000000 300.000000"
 preserveAspectRatio="xMidYMid meet">

<g transform="translate(0.000000,300.000000) scale(0.100000,-0.100000)"
fill="#000000" stroke="none">
<path d="M1360 2735 c-157 -45 -436 -126 -620 -180 -184 -53 -339 -101 -345
-106 -7 -7 -5 -13 6 -20 14 -7 15 -16 9 -45 -5 -20 -11 -251 -15 -513 -5 -412
-20 -1160 -27 -1448 l-3 -91 40 -5 c22 -3 86 -10 142 -16 290 -29 985 -112
1031 -123 45 -10 81 -8 225 10 384 49 477 60 574 71 108 13 204 40 235 67 10
9 21 33 24 53 7 37 -12 1542 -25 1921 -8 244 -12 258 -84 284 -23 9 -161 52
-307 96 -235 72 -493 132 -555 129 -11 -1 -148 -38 -305 -84z m-170 -105 c-10
-6 -11 -10 -2 -10 6 0 12 -5 12 -11 0 -5 -4 -7 -10 -4 -6 3 -7 -1 -4 -9 3 -9
1 -16 -5 -16 -18 0 -30 -35 -42 -129 -9 -73 -15 -91 -28 -91 -11 0 -20 -14
-27 -45 -7 -32 -7 -45 0 -45 6 0 5 -4 -2 -9 -14 -9 -2 -22 31 -34 15 -6 17
-23 17 -156 0 -134 -2 -152 -19 -168 -10 -10 -21 -27 -23 -38 -3 -18 -11 -20
-61 -17 -44 2 -55 -1 -51 -11 3 -9 36 -18 86 -26 45 -6 82 -12 83 -13 1 -2 0
-198 -3 -435 l-5 -433 -87 0 -88 0 -1 75 -1 75 29 0 c65 0 61 -21 61 346 0
259 -3 335 -12 338 -7 3 -30 7 -50 9 -31 5 -38 2 -44 -15 -3 -11 -1 -25 4 -30
6 -6 8 -17 5 -25 -3 -7 2 -22 11 -32 30 -33 58 -124 63 -207 8 -119 -22 -210
-93 -281 -29 -29 -65 -58 -81 -64 -38 -16 -179 -12 -212 5 -38 21 -86 74 -115
131 -26 47 -27 55 -25 212 0 125 4 165 14 170 13 8 15 12 15 32 0 12 29 41 41
41 5 0 9 -7 9 -16 0 -8 5 -12 10 -9 6 3 10 -1 10 -9 0 -8 5 -18 11 -21 5 -4 3
10 -6 30 -14 35 -14 39 2 50 19 14 43 9 43 -9 0 -6 4 -4 10 4 6 9 5 17 -3 23
-7 5 3 7 26 3 27 -3 36 -2 31 7 -5 8 -3 8 7 0 7 -7 31 -13 53 -12 35 0 38 2
19 9 -13 5 -23 12 -23 15 0 7 38 1 46 -8 4 -4 15 -7 23 -7 19 0 41 -23 58 -61
12 -27 48 -37 38 -11 -3 9 0 19 7 24 8 5 9 8 2 8 -6 0 -20 32 -30 70 -21 82 0
72 -219 101 -87 11 -163 23 -167 25 -4 3 -8 19 -8 36 0 22 -6 31 -20 35 -20 5
-20 12 -18 147 3 128 5 141 21 138 9 -2 17 1 18 5 0 4 2 26 5 47 2 22 6 41 9
44 2 3 53 -5 112 -17 60 -11 111 -21 115 -21 4 0 -5 41 -18 91 -14 50 -22 95
-17 99 11 10 348 99 403 106 25 3 47 8 49 10 2 2 9 4 15 4 6 0 4 -5 -4 -10z
m-680 -315 c0 -14 -4 -25 -10 -25 -5 0 -10 11 -10 25 0 14 5 25 10 25 6 0 10
-11 10 -25z m-5 -375 c0 -7 -6 -15 -12 -17 -8 -3 -13 4 -13 17 0 13 5 20 13
18 6 -3 12 -11 12 -18z m1590 0 c-3 -5 1 -10 9 -10 10 0 18 -18 26 -57 10 -56
32 -106 54 -129 19 -19 73 -25 86 -9 7 8 18 15 24 15 8 0 8 -3 0 -8 -6 -4 -13
-15 -17 -24 -3 -10 -14 -18 -24 -18 -15 0 -16 -2 -3 -10 22 -14 12 -18 -94
-40 -104 -21 -166 -26 -111 -9 17 6 43 12 59 14 55 8 40 17 -19 12 -53 -5 -55
-5 -21 4 55 13 60 23 9 14 -47 -7 -56 0 -20 15 18 8 16 9 -13 5 l-35 -6 28 16
c15 9 27 17 27 19 0 2 -12 1 -27 -2 -27 -4 -28 -4 -8 13 19 16 19 16 -12 11
-18 -3 -33 -3 -33 -1 0 2 15 9 33 14 l32 9 -30 2 -30 1 30 15 30 14 -45 -4
c-45 -5 -45 -5 -12 7 30 12 31 13 16 29 -16 16 -16 17 5 11 12 -3 21 -2 20 3
-5 27 3 56 21 74 20 20 56 28 45 10z m-975 -79 c0 -11 -4 -23 -10 -26 -6 -4
-10 5 -10 19 0 14 5 26 10 26 6 0 10 -9 10 -19z m867 -27 c-3 -3 -12 -4 -19
-1 -8 3 -5 6 6 6 11 1 17 -2 13 -5z m-1530 -66 c-3 -8 -6 -5 -6 6 -1 11 2 17
5 13 3 -3 4 -12 1 -19z m303 2 c0 -5 -4 -10 -10 -10 -5 0 -10 5 -10 10 0 6 5
10 10 10 6 0 10 -4 10 -10z m270 -40 c0 -5 -2 -10 -4 -10 -3 0 -8 5 -11 10 -3
6 -1 10 4 10 6 0 11 -4 11 -10z m-110 -30 c0 -5 -2 -10 -4 -10 -3 0 -8 5 -11
10 -3 6 -1 10 4 10 6 0 11 -4 11 -10z m1097 -46 c-3 -3 -12 -4 -19 -1 -8 3 -5
6 6 6 11 1 17 -2 13 -5z m205 -14 c-35 -10 -89 -21 -120 -24 -54 -5 -55 -5
-17 5 140 37 248 52 137 19z m-7 -30 c-11 -5 -33 -8 -50 -8 -29 0 -29 0 -5 8
14 4 36 8 50 8 23 1 23 0 5 -8z m-92 -17 c-7 -2 -19 -2 -25 0 -7 3 -2 5 12 5
14 0 19 -2 13 -5z m86 -7 c-2 -2 -22 -6 -44 -9 -28 -5 -34 -4 -20 3 19 8 73
14 64 6z m54 -493 c-7 -2 -19 -2 -25 0 -7 3 -2 5 12 5 14 0 19 -2 13 -5z
m-143 -78 c0 -3 -10 -10 -22 -15 -21 -8 -19 -9 12 -11 l35 -2 -35 -7 -35 -7
33 -2 c27 -1 32 -5 32 -25 0 -13 9 -44 19 -69 21 -48 59 -71 96 -56 11 4 29 7
40 7 18 0 18 -1 2 -5 -11 -3 -16 -11 -13 -19 4 -10 -3 -14 -22 -15 -17 -1 -20
-3 -9 -6 9 -2 17 -9 17 -14 0 -11 -208 0 -230 12 -11 6 -7 9 15 10 24 2 20 3
-15 9 -43 7 -44 7 -10 9 l35 3 -30 13 -30 14 30 2 c27 2 26 3 -10 9 -31 6 -34
7 -12 9 15 0 27 6 27 11 0 6 -12 11 -27 11 l-28 1 30 8 c21 5 24 8 10 9 -20 2
-20 2 0 13 19 11 19 11 0 19 -18 7 -18 8 -2 8 10 1 16 5 12 10 -3 5 0 13 6 17
8 4 7 9 -2 15 -10 6 -7 9 11 10 14 0 19 3 13 6 -25 10 -12 23 22 23 19 0 35
-2 35 -5z m-995 -152 c1 -12 -1 -27 -5 -32 -4 -8 -314 -15 -457 -11 -8 0 -13
14 -13 35 l0 35 237 -2 c236 -3 236 -3 238 -25z m892 -79 c-3 -3 -12 -4 -19
-1 -8 3 -5 6 6 6 11 1 17 -2 13 -5z m-1039 -11 c-10 -2 -28 -2 -40 0 -13 2 -5
4 17 4 22 1 32 -1 23 -4z m1039 -19 c-3 -3 -12 -4 -19 -1 -8 3 -5 6 6 6 11 1
17 -2 13 -5z m218 -4 c46 -7 43 -7 -35 -8 -47 0 -105 3 -130 7 -40 8 -36 9 35
9 44 0 103 -3 130 -8z m10 -30 c17 -5 -19 -6 -80 -3 -60 3 -112 7 -114 9 -8 7
164 2 194 -6z m-1317 -17 c-10 -2 -26 -2 -35 0 -10 3 -2 5 17 5 19 0 27 -2 18
-5z m1109 1 c-3 -3 -12 -4 -19 -1 -8 3 -5 6 6 6 11 1 17 -2 13 -5z m202 -10
c8 -7 -104 -3 -149 6 -31 5 -15 6 50 3 52 -3 97 -7 99 -9z m-91 -21 c-10 -2
-28 -2 -40 0 -13 2 -5 4 17 4 22 1 32 -1 23 -4z m65 -10 c-7 -2 -19 -2 -25 0
-7 3 -2 5 12 5 14 0 19 -2 13 -5z m-1310 -10 c-7 -2 -19 -2 -25 0 -7 3 -2 5
12 5 14 0 19 -2 13 -5z m1389 -71 c-7 -2 -10 -8 -6 -13 3 -5 -2 -16 -10 -25
-19 -18 -19 -17 -5 24 7 19 15 29 22 25 8 -5 7 -8 -1 -11z m18 -37 c0 -8 -7
-15 -15 -15 -13 0 -14 3 -3 15 16 18 18 18 18 0z m-1483 -11 c-3 -3 -12 -4
-19 -1 -8 3 -5 6 6 6 11 1 17 -2 13 -5z m-130 -10 c-3 -3 -12 -4 -19 -1 -8 3
-5 6 6 6 11 1 17 -2 13 -5z m120 -60 c-3 -3 -12 -4 -19 -1 -8 3 -5 6 6 6 11 1
17 -2 13 -5z"/>
<path d="M640 1626 c0 -2 7 -9 15 -16 13 -11 14 -10 9 4 -5 14 -24 23 -24 12z"/>
<path d="M697 1553 c-4 -7 -3 -14 1 -17 5 -3 7 -29 4 -58 -3 -44 0 -59 20 -88
49 -73 138 -40 138 51 0 52 -14 85 -46 105 -21 15 -33 16 -65 7 -27 -7 -39 -7
-42 0 -2 8 -6 7 -10 0z m98 -121 c-22 -5 -27 1 -19 23 7 17 8 17 21 -1 12 -17
12 -19 -2 -22z"/>
</g>
</svg>
