<?xml version="1.0" standalone="no"?>
<!DOCTYPE svg PUBLIC "-//W3C//DTD SVG 20010904//EN"
 "http://www.w3.org/TR/2001/REC-SVG-20010904/DTD/svg10.dtd">
<svg version="1.0" xmlns="http://www.w3.org/2000/svg"
 width="300.000000pt" height="300.000000pt" viewBox="0 0 300.000000 300.000000"
 preserveAspectRatio="xMidYMid meet">

<g transform="translate(0.000000,300.000000) scale(0.100000,-0.100000)"
fill="#000000" stroke="none">
<path d="M2327 2798 c3 -18 10 -41 15 -50 6 -12 5 -18 -2 -18 -14 0 -39 60
-32 78 4 12 -59 13 -444 9 -475 -6 -662 -12 -672 -21 -3 -3 17 -7 44 -8 l49
-1 -50 -7 c-36 -6 -26 -7 40 -4 72 2 81 1 48 -6 -24 -5 -51 -14 -60 -20 -16
-10 -14 -11 7 -6 167 34 313 30 475 -10 176 -45 201 -56 321 -145 29 -21 55
-35 59 -31 5 4 5 2 2 -4 -4 -6 5 -22 20 -35 14 -13 23 -18 18 -10 -5 9 -4 12
3 7 7 -4 12 -13 12 -20 0 -19 36 -57 46 -48 5 4 6 3 2 -2 -10 -11 22 -65 45
-78 10 -5 16 -16 13 -23 -3 -8 3 -24 13 -37 10 -13 19 -26 19 -31 4 -31 27
-85 34 -81 5 4 9 -2 8 -12 -2 -11 1 -35 5 -54 7 -29 9 -31 17 -15 5 14 6 7 3
-20 -2 -22 0 -58 4 -80 7 -31 9 -34 10 -13 0 14 4 34 8 44 4 12 3 15 -6 10
-11 -7 -9 18 5 64 8 23 -8 360 -16 360 -5 0 -6 -9 -3 -19 7 -26 -30 -47 -47
-26 -14 16 -10 62 5 55 6 -3 10 -15 10 -27 -1 -13 3 -23 8 -23 8 0 4 76 -6
122 -1 6 4 13 11 15 8 3 12 -9 12 -41 0 -26 5 -46 11 -46 6 0 9 16 8 40 -2 21
0 42 4 46 21 21 -20 29 -51 10 -13 -8 -16 14 -6 52 8 29 22 28 30 -3 14 -58
31 -8 24 73 -1 12 3 22 9 22 6 0 11 7 11 15 0 11 -7 14 -24 9 -32 -8 -60 20
-46 46 14 26 13 30 -10 30 -17 0 -19 -5 -13 -32z m-1014 -5 c-7 -2 -19 -2 -25
0 -7 3 -2 5 12 5 14 0 19 -2 13 -5z m812 -30 c3 -10 1 -19 -4 -21 -6 -2 -11
-10 -11 -17 0 -20 -25 -25 -54 -12 -36 17 -35 54 2 60 53 8 60 7 67 -10z m68
-53 c-5 -19 -23 -39 -23 -25 0 9 20 45 24 45 2 0 2 -9 -1 -20z m133 -100 c5
-33 5 -34 -10 -16 -9 11 -16 14 -16 8 0 -7 -4 -12 -10 -12 -13 0 -13 12 0 46
13 33 27 22 36 -26z m11 28 c-3 -8 -6 -5 -6 6 -1 11 2 17 5 13 3 -3 4 -12 1
-19z m-31 -69 c8 -14 -18 -31 -30 -19 -9 9 0 30 14 30 5 0 12 -5 16 -11z m28
-42 c-9 -25 -22 -21 -19 6 3 32 4 32 15 21 6 -6 8 -18 4 -27z m-34 -7 c0 -5
-4 -10 -9 -10 -6 0 -13 5 -16 10 -3 6 1 10 9 10 9 0 16 -4 16 -10z m18 -60
c-1 -33 -11 -29 -23 8 -4 16 -2 22 9 22 10 0 14 -10 14 -30z"/>
<path d="M2075 2720 c3 -5 8 -10 11 -10 2 0 4 5 4 10 0 6 -5 10 -11 10 -5 0
-7 -4 -4 -10z"/>
<path d="M660 2805 c11 -13 9 -20 -10 -40 -16 -17 -30 -23 -43 -19 -14 4 -18
2 -15 -7 8 -25 45 -21 67 7 25 32 28 74 5 74 -14 0 -14 -3 -4 -15z"/>
<path d="M1023 2389 c9 -5 18 -22 18 -37 2 -27 2 -27 6 -2 3 14 10 31 15 38 8
9 3 12 -23 12 -28 -1 -31 -2 -16 -11z"/>
<path d="M1084 2385 c-14 -37 26 -69 53 -42 22 22 8 57 -23 57 -14 0 -27 -7
-30 -15z m44 -18 c2 -10 -3 -17 -12 -17 -10 0 -16 9 -16 21 0 24 23 21 28 -4z"/>
<path d="M1160 2384 c0 -9 10 -19 23 -22 22 -6 22 -6 -3 -13 -21 -5 -23 -7 -7
-14 42 -18 65 23 25 44 -13 6 -15 9 -5 7 9 -3 17 -1 17 4 0 6 -11 10 -25 10
-16 0 -25 -6 -25 -16z"/>
<path d="M1230 2370 c0 -30 14 -41 23 -17 3 8 10 6 21 -8 15 -19 15 -18 16 18
0 20 -5 37 -11 37 -5 0 -7 -4 -4 -10 3 -5 -1 -10 -9 -10 -9 0 -16 5 -16 10 0
6 -4 10 -10 10 -5 0 -10 -13 -10 -30z"/>
<path d="M1310 2370 c0 -16 5 -30 10 -30 6 0 10 14 10 30 0 17 -4 30 -10 30
-5 0 -10 -13 -10 -30z"/>
<path d="M1350 2366 c0 -27 4 -34 18 -31 9 2 20 4 25 4 4 1 7 15 7 31 0 25 -4
30 -25 30 -22 0 -25 -4 -25 -34z m30 14 c0 -5 -2 -10 -4 -10 -3 0 -8 5 -11 10
-3 6 -1 10 4 10 6 0 11 -4 11 -10z"/>
<path d="M1425 2385 c-3 -8 -7 -21 -9 -28 -3 -9 5 -14 25 -14 31 0 32 1 23 35
-7 25 -32 30 -39 7z"/>
<path d="M1154 2252 l-210 -2 -2 -70 -2 -70 564 0 564 0 4 74 3 74 -355 -2
c-195 0 -450 -2 -566 -4z m-74 -43 c0 -5 -7 -9 -15 -9 -13 0 -13 -3 -3 -20
l13 -20 9 20 c12 26 30 26 23 0 -3 -11 -1 -18 4 -14 5 3 9 12 9 20 0 10 13 14
50 14 30 0 50 -4 50 -11 0 -8 4 -8 13 -2 19 15 87 16 87 2 0 -18 11 -4 14 17
2 10 8 20 14 22 7 2 9 -10 6 -35 -4 -40 0 -36 10 9 5 22 11 26 34 25 22 -2 26
-7 24 -26 -3 -21 -2 -22 20 -7 24 16 41 11 51 -14 4 -12 6 -11 6 3 1 12 9 17
31 17 17 0 30 -5 30 -10 0 -6 11 -3 24 5 15 10 26 12 30 6 4 -5 -2 -14 -11
-20 -16 -9 -16 -12 -3 -20 11 -8 17 -5 23 12 12 32 32 43 55 29 10 -7 9 -15
-3 -40 -15 -29 -19 -31 -58 -26 -67 8 -71 8 -99 1 -23 -6 -28 -4 -28 10 0 15
-2 15 -9 4 -16 -25 -52 -24 -59 1 -5 20 -6 20 -12 3 -5 -13 -18 -19 -48 -21
-37 -2 -42 0 -43 19 0 22 0 22 -9 0 -11 -27 -35 -30 -49 -5 -9 16 -11 16 -24
-2 -16 -22 -37 -14 -37 15 0 26 -19 24 -29 -3 -6 -17 -17 -23 -49 -25 -27 -1
-42 2 -42 9 0 9 -3 9 -12 0 -16 -16 -61 -16 -55 1 2 6 10 11 16 10 14 -4 15
14 1 22 -18 11 -11 35 13 44 24 9 37 6 37 -10z m700 6 c0 -8 -7 -15 -15 -15
-12 0 -11 -4 5 -20 11 -11 28 -20 37 -20 15 0 14 2 -3 15 -19 14 -19 14 0 15
19 0 19 0 1 13 -22 17 -5 32 26 22 17 -6 20 -13 16 -42 -3 -19 -7 -37 -10 -40
-12 -12 -120 -8 -124 5 -3 7 5 12 19 12 21 1 22 2 6 14 -21 16 -23 27 -6 44
17 17 48 15 48 -3z m139 -2 c9 -17 11 -16 30 1 17 15 23 16 36 6 8 -7 15 -22
15 -34 -1 -48 -56 -77 -67 -36 -5 19 -6 19 -18 3 -7 -10 -11 -21 -9 -25 3 -4
-5 -4 -18 1 -30 11 -38 69 -12 88 24 17 31 16 43 -4z"/>
<path d="M1381 2164 c0 -11 3 -14 6 -6 3 7 2 16 -1 19 -3 4 -6 -2 -5 -13z"/>
<path d="M1521 2164 c0 -11 3 -14 6 -6 3 7 2 16 -1 19 -3 4 -6 -2 -5 -13z"/>
<path d="M1887 2194 c-4 -4 -7 -14 -7 -23 0 -11 3 -12 11 -4 6 6 10 16 7 23
-2 6 -7 8 -11 4z"/>
<path d="M1957 2180 c-3 -11 -1 -20 4 -20 5 0 9 9 9 20 0 11 -2 20 -4 20 -2 0
-6 -9 -9 -20z"/>
<path d="M995 2054 c-9 -9 -13 -19 -10 -22 3 -3 11 0 17 6 17 17 28 15 28 -4
0 -9 -11 -27 -25 -40 -34 -32 -31 -44 10 -44 19 0 35 5 35 10 0 6 -10 10 -22
10 l-21 0 21 23 c27 29 28 53 3 67 -15 7 -24 6 -36 -6z"/>
<path d="M1070 2060 c0 -5 7 -10 15 -10 11 0 15 -12 15 -50 0 -27 5 -50 10
-50 6 0 10 23 10 50 0 38 4 50 15 50 8 0 15 5 15 10 0 6 -18 10 -40 10 -22 0
-40 -4 -40 -10z"/>
<path d="M1170 2010 l0 -61 38 3 37 3 0 55 0 55 -37 3 -38 3 0 -61z m58 28
c-7 -19 -38 -22 -38 -4 0 10 9 16 21 16 12 0 19 -5 17 -12z m2 -53 c0 -8 -9
-15 -20 -15 -11 0 -20 7 -20 15 0 8 9 15 20 15 11 0 20 -7 20 -15z"/>
<path d="M1785 2050 c3 -5 8 -10 11 -10 2 0 4 5 4 10 0 6 -5 10 -11 10 -5 0
-7 -4 -4 -10z"/>
<path d="M1826 2043 c-6 -14 -5 -15 5 -6 7 7 10 15 7 18 -3 3 -9 -2 -12 -12z"/>
<path d="M1850 2050 c0 -5 5 -10 10 -10 6 0 10 5 10 10 0 6 -4 10 -10 10 -5 0
-10 -4 -10 -10z"/>
<path d="M1980 2039 c0 -5 5 -7 10 -4 6 3 10 8 10 11 0 2 -4 4 -10 4 -5 0 -10
-5 -10 -11z"/>
<path d="M1508 1983 c7 -3 16 -2 19 1 4 3 -2 6 -13 5 -11 0 -14 -3 -6 -6z"/>
<path d="M2391 1924 c0 -11 3 -14 6 -6 3 7 2 16 -1 19 -3 4 -6 -2 -5 -13z"/>
<path d="M992 1860 c0 -14 2 -19 5 -12 2 6 2 18 0 25 -3 6 -5 1 -5 -13z"/>
<path d="M1052 1860 c0 -14 2 -19 5 -12 2 6 2 18 0 25 -3 6 -5 1 -5 -13z"/>
<path d="M1122 1860 c0 -14 2 -19 5 -12 2 6 2 18 0 25 -3 6 -5 1 -5 -13z"/>
<path d="M1141 1864 c0 -11 3 -14 6 -6 3 7 2 16 -1 19 -3 4 -6 -2 -5 -13z"/>
<path d="M1242 1860 c0 -14 2 -19 5 -12 2 6 2 18 0 25 -3 6 -5 1 -5 -13z"/>
<path d="M1272 1860 c0 -14 2 -19 5 -12 2 6 2 18 0 25 -3 6 -5 1 -5 -13z"/>
<path d="M1351 1864 c0 -11 3 -14 6 -6 3 7 2 16 -1 19 -3 4 -6 -2 -5 -13z"/>
<path d="M1562 1860 c0 -14 2 -19 5 -12 2 6 2 18 0 25 -3 6 -5 1 -5 -13z"/>
<path d="M1882 1860 c0 -14 2 -19 5 -12 2 6 2 18 0 25 -3 6 -5 1 -5 -13z"/>
<path d="M1011 1854 c0 -11 3 -14 6 -6 3 7 2 16 -1 19 -3 4 -6 -2 -5 -13z"/>
<path d="M2390 1825 c0 -19 -4 -43 -10 -53 -14 -25 -31 -110 -33 -159 -1 -41
-11 -56 -19 -31 -3 7 -7 3 -10 -9 -5 -19 -3 -21 19 -12 32 12 49 29 57 59 7
24 6 24 -18 -5 -18 -21 -26 -25 -26 -14 0 9 7 22 15 29 8 7 15 18 15 24 0 6
-5 4 -10 -4 -13 -20 -12 -5 4 55 l14 50 4 -40 c3 -22 5 2 6 53 1 50 0 92 -3
92 -3 0 -5 -16 -5 -35z"/>
<path d="M1118 1723 c7 -3 16 -2 19 1 4 3 -2 6 -13 5 -11 0 -14 -3 -6 -6z"/>
<path d="M1946 1634 c-9 -9 -15 -30 -14 -52 1 -32 5 -37 25 -38 16 -1 23 2 19
11 -2 7 4 15 15 18 22 6 25 30 5 46 -11 9 -18 8 -30 -4 -21 -22 -21 -7 1 17
20 22 1 24 -21 2z m44 -34 c0 -5 -5 -10 -11 -10 -5 0 -7 5 -4 10 3 6 8 10 11
10 2 0 4 -4 4 -10z"/>
<path d="M1230 1605 c0 -8 4 -15 8 -15 5 0 9 7 9 15 0 8 -4 15 -9 15 -4 0 -8
-7 -8 -15z"/>
<path d="M1275 1610 c-3 -5 -1 -10 4 -10 6 0 11 5 11 10 0 6 -2 10 -4 10 -3 0
-8 -4 -11 -10z"/>
<path d="M1085 1571 c-3 -5 -1 -12 5 -16 5 -3 10 1 10 9 0 18 -6 21 -15 7z"/>
<path d="M2290 1496 c-8 -20 -22 -44 -32 -53 -10 -9 -18 -22 -18 -30 0 -7 -4
-13 -10 -13 -6 0 -6 -10 0 -27 9 -26 9 -27 -5 -9 -8 11 -15 15 -15 9 0 -17 57
-83 65 -75 5 4 5 -2 1 -13 -6 -17 -5 -18 6 -7 11 11 10 16 -6 28 -11 8 -15 14
-10 14 5 0 8 18 6 40 -2 22 -8 40 -12 40 -4 0 5 25 22 55 16 30 28 60 26 66
-2 6 -10 -5 -18 -25z m-33 -163 c-3 -10 -5 -4 -5 12 0 17 2 24 5 18 2 -7 2
-21 0 -30z"/>
<path d="M1930 1475 c0 -27 3 -46 6 -42 3 3 6 22 6 42 0 20 -3 39 -6 42 -3 4
-6 -15 -6 -42z"/>
<path d="M1961 1473 c1 -38 3 -43 8 -23 l8 25 5 -25 c3 -16 6 -8 7 23 1 36 -3
47 -14 47 -11 0 -15 -12 -14 -47z m16 15 c-3 -8 -6 -5 -6 6 -1 11 2 17 5 13 3
-3 4 -12 1 -19z"/>
<path d="M2000 1485 c0 -19 2 -35 4 -35 2 0 6 16 8 35 2 19 0 35 -4 35 -4 0
-8 -16 -8 -35z"/>
<path d="M1873 1483 c9 -2 23 -2 30 0 6 3 -1 5 -18 5 -16 0 -22 -2 -12 -5z"/>
<path d="M1682 1471 c2 -7 7 -12 11 -12 12 1 9 15 -3 20 -7 2 -11 -2 -8 -8z"/>
<path d="M1730 1470 c0 -5 5 -10 10 -10 6 0 10 5 10 10 0 6 -4 10 -10 10 -5 0
-10 -4 -10 -10z"/>
<path d="M1801 1464 c0 -11 3 -14 6 -6 3 7 2 16 -1 19 -3 4 -6 -2 -5 -13z"/>
<path d="M2327 1473 c-4 -3 -7 -11 -7 -17 0 -6 5 -4 10 4 9 13 11 13 19 0 11
-16 27 -7 16 9 -7 12 -28 14 -38 4z"/>
<path d="M1853 1438 c-2 -5 10 -8 26 -8 17 0 31 3 31 8 0 4 -12 7 -26 7 -14 0
-28 -3 -31 -7z"/>
<path d="M2287 1432 c-14 -15 -15 -25 -6 -56 6 -21 8 -44 5 -51 -2 -7 1 -16 8
-18 14 -6 15 6 2 66 -6 26 -4 42 4 52 19 22 6 28 -13 7z"/>
<path d="M647 1433 c-13 -12 -7 -23 13 -23 11 0 20 7 20 15 0 15 -21 21 -33 8z"/>
<path d="M2320 1414 c-15 -38 -12 -65 8 -81 9 -8 12 -12 6 -9 -7 3 -15 -6 -20
-22 -9 -30 -15 -84 -7 -64 8 20 23 3 24 -26 l1 -27 7 25 c7 22 9 18 16 -25 5
-27 9 -97 9 -155 l0 -105 12 85 c15 104 17 160 5 160 -5 0 -11 16 -13 35 -2
19 0 35 4 35 4 0 8 -9 8 -20 0 -11 4 -20 9 -20 6 0 7 11 1 28 -12 38 -20 119
-11 103 6 -10 10 -9 14 3 4 9 1 16 -6 16 -8 0 -9 3 -1 8 12 8 15 44 3 37 -4
-3 -14 6 -23 20 -21 32 -34 32 -46 -1z m50 -29 c7 -8 11 -16 9 -16 -20 -6 -59
-6 -59 0 0 9 22 31 31 31 4 0 12 -7 19 -15z m7 -287 c-2 -13 -4 -3 -4 22 0 25
2 35 4 23 2 -13 2 -33 0 -45z"/>
<path d="M685 1379 c-4 -12 -13 -18 -20 -15 -9 3 -12 0 -9 -9 8 -19 44 3 44
27 0 24 -7 23 -15 -3z"/>
<path d="M1960 1390 c-11 -7 -7 -10 18 -10 24 0 31 -4 26 -12 -5 -10 -3 -10 7
0 12 11 12 14 -1 22 -19 12 -31 12 -50 0z"/>
<path d="M1373 1363 c-16 -6 -17 -55 -1 -71 7 -7 19 -12 28 -11 9 0 6 4 -7 9
-16 6 -23 18 -23 35 0 17 7 29 23 35 12 5 15 9 7 9 -8 -1 -21 -3 -27 -6z"/>
<path d="M1452 1358 c-26 -26 -7 -78 28 -78 12 1 12 2 -2 11 -10 5 -18 14 -18
19 0 5 8 11 18 13 16 4 16 5 0 6 -10 0 -18 5 -18 11 0 5 8 14 18 19 14 9 14
10 2 11 -9 0 -21 -5 -28 -12z"/>
<path d="M1817 1349 c-18 -25 -11 -56 15 -70 43 -23 86 22 65 69 -13 29 -60
30 -80 1z m66 -10 c14 -23 2 -49 -24 -49 -12 0 -19 3 -15 8 4 4 13 7 19 7 7 0
13 8 15 18 2 12 -3 17 -18 17 -16 0 -20 -4 -16 -15 3 -9 0 -15 -9 -15 -18 0
-20 21 -3 38 16 16 38 12 51 -9z"/>
<path d="M1030 1350 c-13 -8 -12 -10 3 -10 9 0 17 5 17 10 0 12 -1 12 -20 0z"/>
<path d="M1553 1345 c0 -8 9 -15 20 -15 11 0 18 1 16 3 -2 1 -11 8 -20 15 -13
9 -16 9 -16 -3z"/>
<path d="M1278 1343 c7 -3 16 -2 19 1 4 3 -2 6 -13 5 -11 0 -14 -3 -6 -6z"/>
<path d="M1676 1333 c-6 -14 -5 -15 5 -6 7 7 10 15 7 18 -3 3 -9 -2 -12 -12z"/>
<path d="M777 1333 c-37 -10 -3 -23 58 -23 62 0 91 12 59 24 -17 7 -89 6 -117
-1z"/>
<path d="M1996 1315 c-3 -8 -1 -15 4 -15 13 0 22 18 11 24 -5 3 -11 -1 -15 -9z"/>
<path d="M990 1298 c0 -4 23 -8 50 -8 28 0 50 4 50 9 0 5 -22 9 -50 8 -27 0
-50 -4 -50 -9z"/>
<path d="M1688 1293 c7 -3 16 -2 19 1 4 3 -2 6 -13 5 -11 0 -14 -3 -6 -6z"/>
<path d="M868 1274 c6 -3 9 -11 5 -17 -3 -7 -3 -9 2 -5 4 4 14 3 21 -3 8 -6
14 -6 18 0 7 11 -11 25 -39 28 -11 1 -14 -1 -7 -3z"/>
<path d="M1940 1255 c0 -11 12 -15 45 -15 33 0 45 4 45 15 0 11 -12 15 -45 15
-33 0 -45 -4 -45 -15z"/>
<path d="M1000 1249 c0 -5 5 -7 10 -4 6 3 10 8 10 11 0 2 -4 4 -10 4 -5 0 -10
-5 -10 -11z"/>
<path d="M1035 1250 c-3 -5 -1 -10 4 -10 6 0 11 5 11 10 0 6 -2 10 -4 10 -3 0
-8 -4 -11 -10z"/>
<path d="M1032 1200 c2 -9 -4 -14 -14 -14 -10 1 -18 -2 -18 -7 0 -12 21 -11
40 1 12 8 13 11 2 22 -11 11 -13 10 -10 -2z"/>
<path d="M1821 1164 c0 -11 3 -14 6 -6 3 7 2 16 -1 19 -3 4 -6 -2 -5 -13z"/>
<path d="M902 1145 c-1 -16 5 -39 13 -49 8 -11 15 -15 15 -10 0 6 -4 14 -9 20
-5 5 -11 23 -14 39 l-4 30 -1 -30z"/>
<path d="M876 1138 c-3 -13 -1 -27 4 -32 7 -7 10 1 10 22 0 37 -5 41 -14 10z"/>
<path d="M1118 1099 c18 -5 35 -16 38 -23 3 -8 27 -13 72 -13 l67 -1 -65 20
c-36 11 -83 22 -105 24 l-40 4 33 -11z"/>
<path d="M1255 1089 c32 -11 66 -17 75 -14 28 11 -31 34 -85 34 l-50 -1 60
-19z"/>
<path d="M1090 1080 c0 -5 7 -6 17 -3 10 4 14 2 10 -4 -5 -7 0 -9 14 -6 16 4
17 8 7 14 -18 12 -48 11 -48 -1z"/>
<path d="M1105 1030 c3 -5 8 -10 11 -10 2 0 4 5 4 10 0 6 -5 10 -11 10 -5 0
-7 -4 -4 -10z"/>
<path d="M1165 1030 c3 -5 -4 -22 -15 -38 -29 -39 -36 -101 -16 -127 15 -19
16 -19 7 7 -27 73 38 147 117 134 40 -6 69 -29 89 -71 l14 -30 -6 34 c-5 33
-27 63 -50 70 -5 2 -9 7 -7 13 1 5 -2 7 -8 3 -5 -3 -10 -1 -10 4 0 7 -25 11
-61 11 -37 0 -58 -4 -54 -10z"/>
<path d="M1220 960 c20 -13 63 -13 55 0 -3 6 -21 10 -38 10 -24 0 -28 -3 -17
-10z"/>
<path d="M1351 884 c0 -11 3 -14 6 -6 3 7 2 16 -1 19 -3 4 -6 -2 -5 -13z"/>
<path d="M1222 844 c9 -9 21 -13 27 -10 20 13 11 26 -16 26 -25 0 -26 -1 -11
-16z"/>
<path d="M644 620 c0 -63 1 -89 3 -57 2 31 2 83 0 115 -2 31 -3 5 -3 -58z"/>
<path d="M1835 578 c4 -11 2 -18 -4 -18 -6 0 -11 -5 -11 -12 0 -8 6 -6 17 5
14 14 15 19 4 29 -10 11 -11 10 -6 -4z"/>
<path d="M1880 580 c0 -6 10 -10 23 -10 18 0 19 -2 7 -10 -13 -8 -12 -10 3
-10 10 0 17 5 15 12 -5 14 -48 31 -48 18z"/>
<path d="M1780 562 c-43 -51 -42 -51 -21 -45 12 3 21 10 21 15 0 5 10 18 23
29 16 13 18 18 7 19 -9 0 -22 -8 -30 -18z"/>
<path d="M1831 531 c-11 -7 -9 -10 8 -16 11 -3 21 -11 21 -16 0 -6 -4 -8 -9
-5 -4 3 -8 -4 -7 -16 2 -31 23 -33 28 -3 4 18 0 30 -14 39 -19 14 -19 14 -1
19 12 3 13 5 3 6 -8 0 -21 -3 -29 -8z"/>
<path d="M1790 510 c0 -5 5 -10 10 -10 6 0 10 5 10 10 0 6 -4 10 -10 10 -5 0
-10 -4 -10 -10z"/>
<path d="M1887 513 c8 -3 11 -14 7 -29 -8 -33 2 -30 14 4 8 25 7 28 -12 29
-11 1 -15 -1 -9 -4z"/>
<path d="M1836 424 c-9 -24 -8 -25 14 -12 23 15 26 28 6 28 -8 0 -17 -7 -20
-16z"/>
<path d="M1927 427 c-3 -8 1 -14 9 -14 16 0 19 13 5 21 -5 3 -11 0 -14 -7z"/>
<path d="M1551 401 c-1 -24 2 -32 9 -25 7 7 7 19 1 35 -9 23 -10 22 -10 -10z"/>
<path d="M1740 423 c0 -10 64 -83 73 -83 3 0 18 7 33 15 16 8 22 15 13 15 -8
0 -25 9 -37 20 -22 21 -44 28 -24 8 13 -13 16 -38 5 -38 -5 1 -20 17 -35 37
-16 20 -28 32 -28 26z m95 -63 c-3 -5 -12 -10 -18 -10 -7 0 -6 4 3 10 19 12
23 12 15 0z"/>
<path d="M1961 407 c-13 -21 -12 -21 5 -5 10 10 16 20 13 22 -3 3 -11 -5 -18
-17z"/>
<path d="M1905 391 c-3 -5 -1 -12 5 -16 5 -3 10 1 10 9 0 18 -6 21 -15 7z"/>
<path d="M680 335 c0 -9 -7 -18 -15 -21 -8 -4 -15 -12 -15 -20 0 -9 -12 -14
-35 -14 -25 0 -35 -4 -35 -16 0 -10 6 -13 18 -10 23 8 57 -27 49 -49 -4 -10
-1 -15 10 -15 13 0 15 8 10 43 l-6 42 20 -24 c15 -19 19 -20 19 -6 0 11 5 15
15 11 8 -3 14 -2 13 2 -1 4 2 15 7 26 6 13 3 21 -8 28 -10 5 -17 16 -17 23 0
8 -7 15 -15 15 -8 0 -15 -7 -15 -15z m35 -36 c9 -26 -12 -42 -36 -29 -9 5 -20
6 -24 2 -9 -8 3 17 18 36 15 19 35 14 42 -9z"/>
<path d="M1855 340 c-18 -8 -17 -9 7 -9 15 -1 30 4 33 9 7 12 -12 12 -40 0z"/>
<path d="M1570 300 c20 -13 40 -13 40 0 0 6 -12 10 -27 10 -22 0 -25 -2 -13
-10z"/>
<path d="M2315 266 c-9 -19 -14 -40 -10 -45 3 -6 2 -11 -4 -11 -5 0 -15 8 -20
18 -9 15 -10 14 -11 -8 0 -19 -2 -22 -9 -11 -7 10 -24 14 -58 12 -38 -2 -53 2
-67 18 -11 12 -16 27 -12 38 5 14 2 13 -11 -3 -32 -38 -84 -47 -270 -45 -125
2 -183 6 -208 17 -53 22 -193 19 -257 -6 -44 -16 -77 -20 -189 -20 -94 0 -145
-4 -162 -13 -23 -12 -18 -13 51 -13 101 0 655 -13 850 -20 104 -4 152 -2 152
5 0 6 17 11 38 12 30 0 33 2 17 10 -19 8 -19 9 -1 6 37 -4 29 -26 -11 -29 -21
-2 21 -2 92 -2 135 1 189 9 179 26 -4 6 -2 13 4 17 6 3 8 19 5 34 -4 22 -8 25
-20 16 -11 -10 -15 -8 -20 9 -8 32 -30 27 -48 -12z m50 -26 c0 -8 -10 -16 -22
-18 -22 -3 -32 16 -16 32 12 11 38 2 38 -14z m-250 0 c-3 -5 -11 -10 -16 -10
-6 0 -7 5 -4 10 3 6 11 10 16 10 6 0 7 -4 4 -10z"/>
<path d="M779 267 c-8 -7 -19 -12 -26 -10 -13 5 -12 -27 1 -42 5 -5 20 -11 33
-11 13 -1 22 1 19 4 -3 3 -2 10 2 16 5 6 3 21 -3 34 -11 20 -14 21 -26 9z"/>
<path d="M860 250 c-8 -5 -10 -10 -5 -10 6 0 17 5 25 10 8 5 11 10 5 10 -5 0
-17 -5 -25 -10z"/>
<path d="M707 210 c-9 -11 -13 -20 -7 -20 5 0 12 5 15 10 4 6 11 8 16 5 5 -3
6 1 3 9 -8 20 -6 20 -27 -4z"/>
</g>
</svg>
