<?xml version="1.0" standalone="no"?>
<!DOCTYPE svg PUBLIC "-//W3C//DTD SVG 20010904//EN"
 "http://www.w3.org/TR/2001/REC-SVG-20010904/DTD/svg10.dtd">
<svg version="1.0" xmlns="http://www.w3.org/2000/svg"
 width="300.000000pt" height="300.000000pt" viewBox="0 0 300.000000 300.000000"
 preserveAspectRatio="xMidYMid meet">

<g transform="translate(0.000000,300.000000) scale(0.100000,-0.100000)"
fill="#000000" stroke="none">
<path d="M588 2747 l-178 -70 0 -1177 0 -1177 185 -72 185 -72 303 30 c1266
129 1483 151 1495 151 9 0 12 185 12 894 l0 893 -162 7 c-90 4 -182 9 -205 13
l-43 5 -2 -188 -2 -189 -3 157 c-3 119 -6 156 -16 153 -6 -3 -23 5 -37 16 -14
12 -18 19 -9 16 9 -3 16 1 16 10 0 12 -9 14 -36 10 -20 -3 -29 -2 -21 1 8 4
-52 12 -135 18 l-150 12 165 -6 c91 -3 179 -6 195 -6 l30 -1 3 253 c1 138 -1
252 -5 252 -5 0 -48 5 -98 10 -380 40 -1285 130 -1296 129 -8 -1 -94 -33 -191
-72z m71 -453 c-2 -57 -5 -67 -23 -74 -32 -12 -36 -4 -36 65 0 52 3 64 18 68
42 11 43 9 41 -59z m-80 -181 c-1 -18 -3 -21 -6 -10 -2 9 -9 15 -14 12 -5 -4
-9 1 -9 9 0 9 7 16 15 16 10 0 15 -9 14 -27z m-42 -75 c-2 -13 -4 -5 -4 17 -1
22 1 32 4 23 2 -10 2 -28 0 -40z m30 5 c-3 -10 -5 -4 -5 12 0 17 2 24 5 18 2
-7 2 -21 0 -30z m1703 -8 c0 -14 -2 -25 -4 -25 -2 0 -6 11 -8 25 -3 14 -1 25
3 25 5 0 9 -11 9 -25z m40 -7 c0 -5 -7 -8 -15 -8 -15 0 -20 21 -8 33 7 7 23
-11 23 -25z m45 21 c4 -6 13 -8 21 -5 10 4 14 -2 13 -17 0 -12 -3 -16 -6 -9
-4 10 -8 10 -19 1 -11 -9 -14 -7 -15 12 l0 24 -9 -22 c-12 -29 -17 -29 -22 2
-4 19 -1 25 13 25 10 0 21 -5 24 -11z m83 -6 c-10 -2 -18 -8 -18 -13 0 -5 7
-7 15 -4 8 4 15 2 15 -4 0 -14 -28 -23 -36 -11 -10 16 4 39 23 38 17 -1 17 -2
1 -6z m72 -5 c0 -9 4 -8 10 2 7 12 10 8 10 -14 0 -23 -3 -26 -13 -17 -8 6 -17
8 -20 4 -4 -3 -7 1 -7 10 0 10 -4 17 -9 17 -6 0 -8 -9 -6 -20 2 -11 0 -20 -6
-20 -5 0 -9 11 -9 25 0 20 5 25 25 25 14 0 25 -6 25 -12z m-1382 -250 c3 -37
3 -38 -32 -38 -35 0 -36 1 -36 41 0 39 1 40 33 37 29 -3 32 -6 35 -40z m739
-160 l2 -188 -34 0 -35 0 0 191 0 190 33 -3 32 -3 2 -187z m61 168 c6 -29 -15
-43 -35 -24 -14 14 -14 20 -3 33 16 19 34 15 38 -9z m-454 8 c12 -4 16 -20 16
-55 0 -42 3 -49 20 -49 16 0 20 -7 20 -30 0 -23 -4 -30 -20 -30 -18 0 -20 -7
-20 -64 0 -56 3 -66 20 -71 15 -5 20 -15 20 -42 0 -32 -2 -35 -22 -29 -13 3
-29 6 -35 6 -32 0 -44 47 -50 194 -3 80 -3 152 0 161 7 16 25 19 51 9z m-354
-228 c0 -113 -2 -135 -16 -140 -43 -16 -44 -13 -44 134 l0 140 30 0 30 0 0
-134z m100 119 c0 -19 9 -19 34 0 47 36 117 3 136 -63 5 -20 10 -72 10 -114
l0 -78 -35 0 -35 0 0 85 c0 72 -3 88 -20 105 -25 25 -32 25 -61 1 -21 -17 -24
-29 -28 -105 l-3 -86 -29 0 -29 0 0 135 0 135 30 0 c20 0 30 -5 30 -15z m497
-7 c32 -16 52 -51 60 -103 l6 -45 -87 0 c-47 0 -86 -4 -86 -8 0 -29 74 -44 98
-20 10 10 17 7 35 -10 l22 -23 -24 -20 c-74 -61 -184 -12 -192 86 -4 61 2 85
31 119 41 46 79 53 137 24z m-1156 -215 c-8 -15 -10 -15 -11 -2 0 17 10 32 18
25 2 -3 -1 -13 -7 -23z m24 -70 c-6 -24 -25 -27 -33 -5 -2 7 2 10 12 6 13 -5
16 2 17 37 2 32 3 36 6 15 3 -15 2 -39 -2 -53z m-15 -54 c0 -5 4 -7 10 -4 6 3
7 -1 4 -9 -5 -13 -8 -13 -20 -1 -16 16 -18 25 -4 25 6 0 10 -5 10 -11z m1400
-44 c14 -15 24 -41 27 -69 l6 -46 -97 0 -97 0 15 -29 c24 -45 81 -56 115 -22
14 14 22 16 30 8 17 -17 13 -26 -21 -47 -67 -41 -143 -10 -168 66 -42 127 102
233 190 139z m-505 11 c29 -19 55 -75 55 -118 0 -60 -69 -138 -123 -138 -71 0
-136 84 -122 158 18 99 114 148 190 98z m249 3 c32 -25 36 -84 7 -120 -19 -23
-19 -24 5 -71 24 -47 24 -48 4 -48 -14 0 -27 15 -44 48 -23 46 -26 48 -60 44
-36 -4 -36 -4 -36 -53 0 -37 -4 -49 -15 -49 -13 0 -15 22 -15 135 l0 135 64 0
c49 0 69 -5 90 -21z m326 10 c0 -6 -9 -9 -20 -6 -10 3 -21 0 -24 -7 -2 -6 -5
-3 -5 7 -1 12 7 17 24 17 14 0 25 -5 25 -11z m-813 -23 c21 -19 25 -27 16 -36
-9 -10 -17 -9 -34 4 -61 43 -139 -2 -139 -79 0 -85 71 -123 135 -74 22 18 29
20 36 8 13 -21 11 -26 -16 -48 -56 -43 -133 -31 -177 29 -44 60 -24 163 39
202 42 26 106 23 140 -6z m-637 -36 c0 -5 -9 -10 -20 -10 -11 0 -20 5 -20 10
0 6 9 10 20 10 11 0 20 -4 20 -10z m-4 -54 c9 -37 1 -81 -15 -81 -8 0 -15 6
-17 13 -1 7 0 8 3 2 11 -23 23 -8 23 29 0 40 -14 62 -23 39 -3 -8 -6 -6 -6 5
-1 26 28 21 35 -7z m-4 -198 c-12 -12 -32 -2 -31 15 0 9 2 9 6 0 10 -27 23
-11 25 30 l1 42 4 -39 c3 -21 0 -43 -5 -48z m8 -84 c0 -11 -8 -14 -27 -12 -39
4 -42 28 -4 28 21 0 31 -5 31 -16z m1170 -20 c0 -17 -6 -24 -20 -24 -15 0 -20
7 -20 29 0 24 3 28 20 24 13 -3 20 -14 20 -29z m-270 5 c0 -4 -6 -6 -14 -3 -7
3 -16 -2 -19 -10 -5 -12 0 -16 15 -16 16 0 19 -3 11 -11 -7 -7 -19 -9 -27 -6
-19 7 -21 38 -5 54 12 12 39 7 39 -8z m76 12 c9 8 14 8 14 1 0 -6 -5 -14 -10
-17 -8 -5 -7 -11 0 -20 9 -11 7 -14 -9 -12 -17 1 -21 8 -20 32 0 16 3 24 6 17
4 -10 8 -10 19 -1z m89 -1 l-20 -9 20 -1 c17 -2 17 -3 3 -7 -10 -2 -18 -8 -18
-13 0 -5 8 -11 18 -13 13 -4 11 -5 -5 -6 -19 -1 -23 4 -23 29 0 25 4 30 23 29
21 0 21 -1 2 -9z m-261 -15 c8 -23 -4 -45 -25 -45 -11 0 -22 7 -25 15 -9 23 3
45 25 45 10 0 21 -7 25 -15z m-303 -58 c-17 -17 -41 0 -40 30 2 24 2 25 6 6 6
-33 33 -29 34 5 l2 27 4 -29 c3 -16 0 -33 -6 -39z m87 51 c9 -9 12 -9 12 0 0
7 5 12 10 12 6 0 10 -13 10 -30 0 -32 -9 -37 -28 -18 -9 9 -12 9 -12 0 0 -7
-4 -12 -10 -12 -5 0 -10 14 -10 30 0 32 9 37 28 18z m108 -28 c8 0 14 -4 14
-10 0 -5 -9 -10 -20 -10 -16 0 -20 6 -19 33 1 23 3 26 6 10 2 -13 11 -23 19
-23z m-725 -13 c-8 -8 -11 -7 -11 4 0 20 13 34 18 19 3 -7 -1 -17 -7 -23z m24
-54 c-7 -28 -28 -26 -34 3 -3 16 -1 17 13 5 14 -12 16 -9 17 25 1 25 3 31 6
15 3 -12 2 -34 -2 -48z m1 -68 c-7 -20 -47 -16 -54 4 -3 10 2 12 22 7 17 -4
26 -2 26 5 0 7 3 10 6 6 4 -3 4 -13 0 -22z m-6 -50 c10 -13 9 -15 -8 -15 -15
0 -20 5 -16 15 4 8 7 15 9 15 1 0 8 -7 15 -15z m10 -90 c0 -3 -9 -5 -20 -5
-11 0 -20 7 -20 15 0 13 4 14 20 5 11 -6 20 -13 20 -15z m-53 -37 c-3 -8 -6
-5 -6 6 -1 11 2 17 5 13 3 -3 4 -12 1 -19z m37 6 c23 -9 20 -24 -4 -24 -11 0
-20 7 -20 15 0 17 2 18 24 9z m996 -49 c0 -16 -6 -25 -15 -25 -18 0 -19 16 -2
35 16 19 17 19 17 -10z m-190 -5 c0 -5 -6 -8 -12 -6 -7 1 -10 1 -5 -1 12 -8 8
-20 -8 -20 -8 0 -15 9 -15 19 0 11 7 18 20 18 11 0 20 -4 20 -10z m150 1 c0
-6 -4 -13 -10 -16 -5 -3 -10 0 -10 7 0 10 -3 9 -10 -2 -5 -8 -12 -11 -15 -8
-4 4 -4 11 0 17 8 13 45 15 45 2z m-286 -25 c-7 -19 -46 -34 -66 -27 -24 9 -8
30 25 33 15 1 27 6 27 11 0 4 4 6 10 2 5 -3 7 -12 4 -19z m199 4 c-4 -16 -9
-18 -24 -9 -11 5 -24 7 -29 4 -11 -7 -14 8 -3 18 3 4 19 7 34 7 22 0 26 -4 22
-20z m27 5 c0 -8 -4 -15 -10 -15 -5 0 -7 7 -4 15 4 8 8 15 10 15 2 0 4 -7 4
-15z m-343 -2 c-13 -3 -17 -11 -14 -24 3 -10 1 -17 -4 -13 -5 3 -9 14 -9 25 0
13 6 19 23 18 18 -1 19 -2 4 -6z m201 -10 c2 -7 -1 -13 -7 -13 -6 0 -11 5 -11
10 0 6 -8 10 -17 10 -14 0 -15 -2 -4 -9 9 -6 5 -8 -13 -8 -24 0 -33 7 -21 19
10 10 68 3 73 -9z m-262 -2 c11 9 14 7 14 -9 0 -15 -6 -20 -20 -19 -11 1 -20
6 -20 12 0 6 -3 7 -8 0 -11 -15 -32 -17 -32 -2 0 8 -4 7 -10 -3 -8 -13 -10
-12 -10 4 0 10 5 16 13 13 6 -2 21 -1 32 3 11 4 22 3 23 -2 2 -5 10 -4 18 3z
m88 -6 c-7 -17 -20 -20 -29 -6 -3 5 3 12 12 14 10 3 19 5 20 6 1 0 0 -6 -3
-14z m-254 -14 c0 -10 -7 -22 -16 -25 -23 -9 -24 -8 -24 19 0 18 5 25 20 25
13 0 20 -7 20 -19z m35 9 c-8 -13 8 -13 21 0 6 6 10 3 10 -9 0 -13 -7 -19 -21
-18 -25 1 -38 19 -22 29 16 10 19 10 12 -2z"/>
<path d="M1622 1628 c-25 -25 -13 -35 43 -35 59 0 65 5 37 30 -22 20 -63 22
-80 5z"/>
<path d="M1852 1293 c-7 -3 -19 -18 -27 -34 l-16 -29 76 0 c83 0 93 10 52 48
-22 21 -56 27 -85 15z"/>
<path d="M1356 1279 c-38 -30 -49 -62 -36 -111 9 -31 18 -43 45 -54 92 -38
158 84 86 157 -35 35 -59 36 -95 8z"/>
<path d="M1594 1286 c-3 -8 -4 -27 -2 -43 3 -24 8 -28 40 -31 60 -5 97 51 54
80 -20 14 -86 9 -92 -6z"/>
<path d="M1730 915 c0 -8 5 -15 10 -15 6 0 10 7 10 15 0 8 -4 15 -10 15 -5 0
-10 -7 -10 -15z"/>
<path d="M1355 910 c-7 -12 2 -30 16 -30 12 0 12 27 0 35 -5 3 -12 1 -16 -5z"/>
<path d="M1205 490 c-3 -5 -1 -10 4 -10 6 0 11 5 11 10 0 6 -2 10 -4 10 -3 0
-8 -4 -11 -10z"/>
<path d="M870 464 c0 -8 5 -12 10 -9 6 3 10 10 10 16 0 5 -4 9 -10 9 -5 0 -10
-7 -10 -16z"/>
<path d="M2307 2524 c-16 -16 -7 -44 14 -44 15 0 20 5 17 22 -3 22 -19 33 -31
22z"/>
<path d="M2370 2500 c0 -17 7 -20 40 -20 l39 0 -30 -81 c-16 -45 -27 -84 -25
-87 15 -15 37 16 60 85 34 101 33 109 -5 117 -58 11 -79 8 -79 -14z"/>
<path d="M2305 2427 c-4 -13 -5 -43 -3 -68 2 -32 8 -45 21 -47 15 -3 17 5 17
67 0 56 -3 71 -15 71 -8 0 -17 -10 -20 -23z"/>
<path d="M2155 2140 c-3 -5 -1 -10 4 -10 6 0 11 5 11 10 0 6 -2 10 -4 10 -3 0
-8 -4 -11 -10z"/>
</g>
</svg>
