<?xml version="1.0" standalone="no"?>
<!DOCTYPE svg PUBLIC "-//W3C//DTD SVG 20010904//EN"
 "http://www.w3.org/TR/2001/REC-SVG-20010904/DTD/svg10.dtd">
<svg version="1.0" xmlns="http://www.w3.org/2000/svg"
 width="500.000000pt" height="500.000000pt" viewBox="0 0 500.000000 500.000000"
 preserveAspectRatio="xMidYMid meet">
<metadata>
Created by potrace 1.16, written by Peter Selinger 2001-2019
</metadata>
<g transform="translate(0.000000,500.000000) scale(0.100000,-0.100000)"
fill="#000000" stroke="none">
<path d="M2367 4213 c-35 -4 -38 -7 -48 -49 -11 -42 -13 -44 -49 -44 l-39 0
10 32 c5 18 9 36 9 40 0 10 -71 10 -87 0 -11 -7 -70 -209 -62 -215 2 -2 25 -2
51 1 l47 4 12 54 c9 38 16 51 23 44 5 -5 20 -10 33 -10 21 0 23 -3 17 -40 -7
-45 -1 -48 55 -29 38 13 45 26 66 115 8 38 18 77 21 87 3 10 0 16 -8 15 -7 -1
-30 -3 -51 -5z"/>
<path d="M2507 4210 c-37 -11 -52 -31 -78 -108 l-21 -62 24 -21 c21 -18 32
-19 113 -14 124 8 134 16 170 133 12 40 12 45 -6 63 -16 16 -33 19 -96 18 -43
0 -91 -5 -106 -9z"/>
<path d="M2776 4197 c-25 -39 -67 -149 -64 -165 4 -21 42 -29 138 -30 108 -1
144 21 181 113 16 39 29 76 29 83 0 8 -16 12 -47 12 l-48 0 -34 -80 c-32 -76
-36 -80 -66 -80 -17 0 -34 3 -37 6 -3 3 7 37 22 77 15 40 27 73 26 73 0 1 -20
4 -44 7 -36 4 -45 2 -56 -16z"/>
<path d="M3124 4169 c-26 -11 -50 -33 -63 -55 -12 -19 -21 -37 -21 -39 0 -4
37 -11 103 -20 29 -4 45 -10 41 -17 -4 -6 -34 -7 -84 -3 -74 7 -78 6 -85 -15
-4 -12 -5 -23 -3 -25 2 -2 44 -9 94 -16 85 -10 93 -10 132 10 27 14 49 35 62
60 l19 39 -22 6 c-12 3 -40 6 -62 6 -45 0 -74 13 -55 25 6 4 43 4 82 0 55 -6
72 -4 79 6 18 29 8 37 -58 43 -38 4 -79 9 -93 11 -14 2 -44 -5 -66 -16z"/>
<path d="M1873 4155 c-117 -22 -137 -40 -153 -140 -10 -62 -9 -71 6 -82 23
-17 42 -16 142 3 76 16 82 18 82 42 0 23 -2 24 -46 17 -26 -3 -53 -9 -60 -12
-10 -4 -14 4 -13 28 2 72 10 82 72 95 65 13 62 11 71 42 9 26 5 26 -101 7z"/>
<path d="M3346 4073 c-62 -106 -53 -117 109 -144 66 -11 78 -11 85 1 18 29 9
38 -43 44 -60 8 -79 17 -69 33 5 9 23 8 70 -2 58 -12 63 -11 72 6 14 26 15 25
-50 38 -47 9 -58 15 -53 27 4 12 14 14 37 10 85 -18 112 -18 125 -2 8 9 11 19
7 23 -8 8 -183 42 -218 43 -24 0 -33 -11 -72 -77z"/>
<path d="M1548 4087 c-48 -13 -91 -26 -95 -31 -4 -4 -12 -55 -18 -113 l-11
-105 40 6 c49 8 66 27 66 75 0 22 3 31 8 23 12 -18 102 11 130 41 28 29 40 91
22 112 -16 20 -38 18 -142 -8z"/>
<path d="M3590 3683 c-201 -10 -491 -84 -695 -178 -16 -7 -66 -30 -109 -49
-84 -39 -102 -61 -20 -25 262 113 596 189 829 189 508 0 731 -305 579 -791
-90 -289 -314 -636 -612 -949 l-71 -75 -1 702 0 702 -32 5 c-18 3 -118 12
-223 21 -104 9 -191 18 -193 20 -7 7 256 85 358 106 145 30 339 30 427 2 83
-27 135 -70 164 -135 49 -110 24 -306 -67 -525 -60 -144 -182 -353 -296 -508
-23 -31 -18 -27 22 15 115 123 263 344 339 505 18 39 47 113 64 165 27 85 31
109 31 220 1 119 0 128 -28 182 -36 71 -74 108 -151 146 -151 75 -414 75 -695
0 -132 -35 -294 -92 -413 -147 -91 -42 -81 -41 -482 -66 -132 -9 -350 -24
-485 -35 -135 -11 -257 -20 -271 -20 l-26 0 -5 -415 -6 -414 -54 -63 c-140
-163 -274 -365 -346 -518 -65 -140 -76 -169 -104 -280 -25 -99 -29 -129 -26
-220 3 -89 8 -114 30 -160 69 -143 195 -203 423 -201 194 1 349 35 585 127 63
25 153 66 200 90 93 49 91 49 -55 -8 -117 -45 -352 -113 -445 -127 -291 -46
-521 -7 -601 104 -85 117 -50 349 93 627 69 135 205 338 291 433 5 6 6 -146 2
-372 l-6 -382 23 -5 c13 -3 120 -12 238 -21 118 -8 341 -27 495 -40 154 -14
340 -29 414 -35 74 -5 136 -11 138 -14 5 -4 -80 -61 -174 -117 -111 -65 -421
-215 -525 -254 -426 -157 -780 -183 -1007 -72 -97 47 -181 136 -214 227 -53
142 -57 252 -15 435 52 230 214 553 394 787 41 53 63 97 26 52 -158 -194 -137
-166 -246 -329 -197 -296 -300 -617 -269 -841 58 -425 478 -600 1089 -454 251
60 542 178 794 323 153 87 314 192 358 231 22 20 37 21 238 24 118 2 214 4
215 5 0 1 3 80 6 175 l5 172 88 90 c666 678 913 1389 610 1754 -123 147 -338
223 -600 209z"/>
</g>
</svg>
