<?xml version="1.0" standalone="no"?>
<!DOCTYPE svg PUBLIC "-//W3C//DTD SVG 20010904//EN"
 "http://www.w3.org/TR/2001/REC-SVG-20010904/DTD/svg10.dtd">
<svg version="1.0" xmlns="http://www.w3.org/2000/svg"
 width="300.000000pt" height="300.000000pt" viewBox="0 0 300.000000 300.000000"
 preserveAspectRatio="xMidYMid meet">

<g transform="translate(0.000000,300.000000) scale(0.100000,-0.100000)"
fill="#000000" stroke="none">
<path d="M320 1982 c0 -4 -29 -25 -64 -47 l-65 -39 -5 -66 c-2 -36 -8 -84 -11
-107 -6 -37 -4 -45 20 -65 26 -23 26 -23 26 -165 -1 -136 0 -143 19 -143 16 0
20 -7 20 -30 0 -23 -4 -30 -20 -30 -16 0 -20 -7 -20 -35 0 -28 4 -35 20 -35
28 0 28 -50 0 -57 -19 -5 -21 -12 -18 -72 2 -54 6 -66 21 -69 10 -2 27 4 38
14 15 13 19 14 19 3 0 -12 2 -12 9 0 6 10 10 10 16 1 6 -9 10 -9 16 1 7 11 9
11 9 -1 0 -13 1 -13 10 0 9 13 11 13 20 0 9 -13 10 -13 10 0 0 12 2 12 9 1 6
-10 10 -10 16 -1 6 9 10 9 16 -1 7 -12 9 -12 9 0 0 10 3 11 14 2 11 -9 15 -9
19 1 4 9 6 9 6 -2 1 -13 2 -13 11 0 8 12 11 13 19 1 7 -11 9 -11 14 0 5 12 6
12 6 0 1 -11 4 -11 16 -1 12 10 15 10 15 -1 0 -11 2 -11 10 1 8 12 10 12 10 1
0 -11 3 -11 15 -1 12 10 15 10 15 -1 0 -12 2 -12 9 0 6 10 10 10 16 1 6 -9 10
-9 16 1 7 11 9 11 9 -1 0 -13 1 -13 10 0 8 12 11 13 19 1 7 -11 9 -11 14 0 5
12 6 12 6 0 1 -11 4 -11 16 -1 12 10 15 10 15 -1 0 -9 3 -10 8 -4 4 6 14 10
22 10 8 0 18 -4 22 -10 5 -6 8 -5 8 4 0 10 3 11 14 2 11 -9 15 -9 19 1 4 10 6
10 6 -1 1 -11 4 -11 16 -1 12 10 15 10 15 -1 0 -11 2 -11 10 1 7 11 10 11 10
2 0 -7 5 -10 11 -6 6 3 15 0 20 -7 7 -12 9 -11 9 1 0 20 40 20 41 0 0 -13 1
-13 7 0 4 8 14 15 22 15 8 0 18 -7 22 -15 5 -12 7 -11 7 4 1 15 4 16 16 6 12
-10 15 -10 16 1 0 8 4 5 9 -6 8 -19 9 -19 9 -1 1 15 4 16 16 6 12 -10 15 -10
16 1 0 8 4 5 9 -6 5 -11 9 -14 9 -6 1 7 7 11 15 8 8 -3 17 -1 20 6 3 8 5 8 5
-2 1 -11 4 -11 16 -1 12 10 15 9 16 -6 0 -18 1 -18 9 1 5 11 9 14 9 6 1 -10 4
-11 15 -2 12 10 15 8 19 -11 l4 -23 2 24 c1 20 3 21 16 11 12 -10 15 -10 15 1
0 11 2 11 10 -1 8 -12 10 -12 10 -1 0 11 3 11 15 1 12 -10 15 -10 16 1 1 8 5
3 9 -11 l8 -25 1 25 c2 23 2 24 15 7 14 -18 14 -18 19 0 4 16 5 16 6 -2 1 -17
3 -18 11 -5 9 13 11 13 20 0 8 -13 10 -12 11 5 0 11 3 15 5 8 3 -7 12 -9 20
-6 8 3 14 -1 14 -8 0 -12 2 -12 9 0 5 7 13 11 19 7 6 -3 13 0 15 6 3 7 6 3 6
-9 1 -19 7 -23 30 -23 26 0 30 4 33 33 4 45 31 43 39 -3 4 -19 7 -27 8 -17 0
9 6 17 11 17 6 0 10 -8 11 -17 1 -12 4 -10 9 7 4 14 8 20 9 13 1 -7 8 -10 16
-7 10 4 15 0 16 -12 1 -14 3 -13 9 6 4 14 8 19 9 11 1 -11 4 -11 16 -1 12 10
15 9 15 -6 0 -15 2 -16 9 -5 5 7 14 10 20 7 6 -4 11 -1 12 6 0 7 4 4 9 -7 5
-11 9 -14 9 -6 1 7 7 11 16 7 8 -3 15 0 15 7 0 7 3 8 8 2 4 -5 14 -10 22 -10
8 0 18 5 22 10 5 6 8 5 8 -4 0 -11 3 -11 15 -1 13 10 15 9 16 -11 1 -15 3 -18
6 -8 2 10 13 19 24 22 14 4 19 0 20 -16 1 -18 2 -19 6 -4 3 11 11 16 19 13 8
-3 14 0 15 7 0 7 4 3 9 -8 8 -19 9 -19 9 -1 1 15 4 16 15 7 11 -9 15 -9 19 1
4 10 6 10 6 -1 1 -11 4 -11 16 -1 12 10 15 10 15 -1 0 -11 2 -11 10 1 5 8 10
10 10 4 0 -6 12 -10 27 -8 15 1 31 -3 35 -9 6 -9 8 -9 8 1 0 7 5 10 10 7 6 -3
10 -1 10 6 0 9 3 9 14 0 11 -9 15 -9 19 1 4 10 6 10 6 -1 1 -11 4 -11 16 -1
12 10 15 9 15 -6 0 -11 3 -15 8 -8 4 6 24 10 45 10 20 -1 37 3 37 9 0 7 3 7 8
0 4 -5 14 -10 22 -10 8 0 18 5 22 10 5 6 8 5 8 -4 0 -11 3 -11 15 -1 8 7 15 8
15 3 0 -6 11 -9 25 -8 14 2 25 -2 25 -8 0 -9 2 -9 8 0 8 13 29 13 50 0 7 -5
12 -3 12 5 0 9 3 9 10 -2 8 -12 10 -12 10 -1 0 10 3 11 14 2 11 -10 15 -8 19
6 4 16 5 16 6 -2 1 -17 3 -18 11 -5 9 13 11 13 20 0 8 -13 10 -12 11 5 0 15 2
17 7 5 4 -8 22 -17 40 -18 l32 -4 0 71 c0 64 -2 71 -20 71 -15 0 -20 7 -20 26
0 17 6 28 20 31 14 4 20 14 20 33 0 19 -6 29 -20 33 -14 3 -20 14 -20 31 0 19
5 26 20 26 19 0 20 7 20 144 0 143 0 145 26 165 25 19 25 22 19 108 -9 129 -8
126 -80 169 -35 22 -65 45 -65 52 0 13 -81 18 -93 5 -4 -3 0 -17 8 -30 l15
-23 -73 0 c-69 0 -75 -2 -103 -31 l-29 -30 -902 3 -902 3 -29 28 c-30 29 -50
34 -136 36 -47 1 -48 2 -33 19 26 28 21 32 -33 32 -27 0 -50 -4 -50 -8z m82
-110 c-19 -6 -44 6 -37 18 4 7 14 6 28 -2 14 -7 17 -13 9 -16z m2227 -3 c-22
-14 -33 -10 -19 6 7 8 17 12 22 9 6 -4 5 -10 -3 -15z m-2309 -34 c10 -12 9
-15 -8 -15 -11 0 -25 7 -32 15 -10 12 -9 15 8 15 11 0 25 -7 32 -15z m160 0
c10 -12 9 -15 -8 -15 -11 0 -25 7 -32 15 -10 12 -9 15 8 15 11 0 25 -7 32 -15z
m78 -2 c5 -18 -23 -16 -39 3 -11 14 -10 15 11 12 13 -1 25 -9 28 -15z m142 7
c8 -5 11 -12 7 -16 -4 -4 -15 0 -24 9 -18 18 -8 23 17 7z m177 -16 c-7 -7 -37
7 -37 17 0 6 9 5 21 -1 11 -7 19 -14 16 -16z m153 11 c10 -12 10 -15 -3 -15
-8 0 -20 7 -27 15 -10 12 -10 15 3 15 8 0 20 -7 27 -15z m983 0 c1 -6 -11 -11
-28 -13 -29 -2 -29 -2 -10 13 20 16 35 16 38 0z m-615 -8 c-1 -2 3 -11 11 -21
17 -20 16 -22 -32 -30 -37 -7 -38 -6 -32 16 4 13 8 23 9 24 19 16 55 25 44 11z
m777 3 c-3 -5 -17 -10 -31 -10 -14 0 -22 4 -19 10 3 6 17 10 31 10 14 0 22 -4
19 -10z m145 -5 c-13 -16 -40 -20 -40 -7 0 14 12 22 33 22 16 0 17 -3 7 -15z
m160 0 c-13 -16 -40 -20 -40 -7 0 14 12 22 33 22 16 0 17 -3 7 -15z m76 0
c-10 -8 -23 -12 -28 -9 -14 9 2 24 25 24 21 -1 21 -1 3 -15z m154 0 c-7 -9
-15 -13 -17 -11 -7 7 7 26 19 26 6 0 6 -6 -2 -15z m-1225 -29 c0 -14 -5 -22
-12 -19 -9 4 -10 10 -2 24 13 24 14 24 14 -5z m58 -6 c7 -27 -1 -25 -13 3 -7
17 -9 18 -9 5 -1 -21 -21 -24 -21 -4 0 14 19 26 31 20 4 -2 9 -13 12 -24z
m104 -7 c-3 -10 -5 -4 -5 12 0 17 2 24 5 18 2 -7 2 -21 0 -30z m-210 5 c-3 -8
-6 -5 -6 6 -1 11 2 17 5 13 3 -3 4 -12 1 -19z m150 10 c5 12 23 7 23 -6 0 -15
-39 -10 -52 6 -12 16 -11 16 6 2 15 -12 20 -12 23 -2z m40 -20 c-3 -7 -5 -2
-5 12 0 14 2 19 5 13 2 -7 2 -19 0 -25z m40 0 c-3 -7 -5 -2 -5 12 0 14 2 19 5
13 2 -7 2 -19 0 -25z m-1189 5 c5 -18 -23 -16 -39 3 -11 14 -10 15 11 12 13
-1 25 -9 28 -15z m147 7 c8 -13 -5 -13 -25 0 -13 8 -13 10 2 10 9 0 20 -4 23
-10z m315 0 c8 -5 12 -11 10 -14 -3 -2 -14 2 -24 10 -22 15 -10 19 14 4z m170
-5 c10 -12 10 -15 -3 -15 -8 0 -20 7 -27 15 -10 12 -10 15 3 15 8 0 20 -7 27
-15z m824 0 c-4 -8 -17 -15 -31 -15 -22 0 -24 2 -13 15 7 8 21 15 31 15 12 0
16 -5 13 -15z m166 6 c0 -10 -24 -21 -47 -21 -13 0 -13 3 -3 15 13 16 50 21
50 6z m68 -3 c-3 -7 -15 -15 -28 -16 -21 -3 -22 -2 -11 12 16 19 44 21 39 4z
m80 0 c-3 -7 -15 -15 -28 -16 -21 -3 -22 -2 -11 12 16 19 44 21 39 4z m157 -8
c-3 -5 -15 -10 -26 -10 -11 0 -17 5 -14 10 3 6 15 10 26 10 11 0 17 -4 14 -10z
m150 0 c-3 -5 -14 -10 -23 -10 -15 0 -15 2 -2 10 20 13 33 13 25 0z m-1459
-198 c1 -7 0 -8 -3 -2 -2 5 -9 10 -14 10 -6 0 -7 -5 -3 -12 4 -7 3 -8 -4 -4
-7 4 -12 12 -12 17 0 15 33 7 36 -9z m158 -9 c-5 -18 -1 -25 17 -32 23 -9 23
-10 -6 -9 -16 1 -35 6 -42 10 -6 5 -14 5 -18 -2 -3 -5 -11 -10 -18 -10 -6 0
-2 6 9 14 13 10 23 11 31 4 10 -8 13 -4 12 18 0 16 -3 23 -6 16 -3 -8 -9 -10
-16 -3 -7 5 -21 11 -32 13 -11 3 1 5 27 5 45 0 47 -2 42 -24z m177 -5 c0 -25
2 -28 8 -15 6 17 8 17 20 3 7 -9 17 -13 22 -10 5 3 9 0 9 -5 0 -14 -13 -14
-28 1 -9 9 -12 9 -12 0 0 -15 -36 -16 -45 -2 -4 6 -12 7 -18 4 -8 -4 -7 -2 1
7 11 12 14 12 23 -1 8 -11 9 -7 6 18 -2 17 0 32 5 32 4 0 8 -15 9 -32z m169
28 c0 -2 -13 -6 -30 -8 -16 -3 -30 -1 -30 4 0 4 14 8 30 8 17 0 30 -2 30 -4z
m-130 -16 c0 -5 -2 -10 -4 -10 -3 0 -8 5 -11 10 -3 6 -1 10 4 10 6 0 11 -4 11
-10z m-280 -17 c0 -11 -3 -14 -8 -7 -4 6 -14 14 -22 17 -10 4 -8 6 8 6 15 1
22 -5 22 -16z m97 2 c0 -18 -19 -15 -25 3 -2 7 3 12 11 12 7 0 14 -7 14 -15z
m243 0 c0 -9 -6 -12 -16 -8 -13 5 -13 7 -2 14 17 11 18 11 18 -6z m70 0 c0 -9
-9 -15 -22 -14 -21 1 -21 2 -3 7 l20 5 -20 8 c-19 7 -19 8 3 8 13 1 22 -5 22
-14z m55 5 c3 -5 1 -10 -4 -10 -6 0 -11 5 -11 10 0 6 2 10 4 10 3 0 8 -4 11
-10z m65 -5 c0 -8 -4 -15 -10 -15 -5 0 -10 7 -10 15 0 8 5 15 10 15 6 0 10 -7
10 -15z m167 -7 c-3 -8 -6 -5 -6 6 -1 11 2 17 5 13 3 -3 4 -12 1 -19z m-307
-21 c21 -4 20 -4 -7 -6 -25 -1 -33 3 -33 17 0 11 3 13 8 6 4 -7 18 -14 32 -17z
m123 -4 c-13 -2 -33 -2 -45 0 -13 2 -3 4 22 4 25 0 35 -2 23 -4z m1067 -3 c0
-13 -11 -13 -30 0 -12 8 -11 10 8 10 12 0 22 -4 22 -10z m-2500 -471 c0 -5 -7
-9 -15 -9 -15 0 -20 12 -9 23 8 8 24 -1 24 -14z m2037 15 c-3 -3 -12 -4 -19
-1 -8 3 -5 6 6 6 11 1 17 -2 13 -5z m110 0 c-3 -3 -12 -4 -19 -1 -8 3 -5 6 6
6 11 1 17 -2 13 -5z m70 0 c-3 -3 -12 -4 -19 -1 -8 3 -5 6 6 6 11 1 17 -2 13
-5z m271 -16 c-6 -18 -28 -21 -28 -4 0 9 7 16 16 16 9 0 14 -5 12 -12z"/>
</g>
</svg>
