<?xml version="1.0" standalone="no"?>
<!DOCTYPE svg PUBLIC "-//W3C//DTD SVG 20010904//EN"
 "http://www.w3.org/TR/2001/REC-SVG-20010904/DTD/svg10.dtd">
<svg version="1.0" xmlns="http://www.w3.org/2000/svg"
 width="300.000000pt" height="300.000000pt" viewBox="0 0 300.000000 300.000000"
 preserveAspectRatio="xMidYMid meet">
<metadata>
Created by potrace 1.16, written by Peter Selinger 2001-2019
</metadata>
<g transform="translate(0.000000,300.000000) scale(0.100000,-0.100000)"
fill="#000000" stroke="none">
<path d="M2390 2073 c-194 -25 -191 -24 -950 -228 -217 -58 -504 -135 -638
-171 -226 -60 -298 -86 -586 -209 -37 -16 -38 -17 -31 -53 3 -20 15 -44 25
-52 10 -8 28 -48 40 -88 17 -54 26 -72 37 -68 21 8 35 -36 17 -50 -20 -16 -8
-64 16 -64 23 0 34 -30 17 -47 -11 -11 -11 -24 -2 -68 5 -29 13 -56 15 -59 3
-2 258 -8 568 -11 l562 -7 0 37 c0 46 24 43 28 -4 l3 -33 632 7 c348 4 634 9
635 10 2 2 6 31 9 65 5 56 4 62 -16 67 -27 7 -28 43 -1 50 24 6 28 60 5 69 -8
4 -15 17 -15 30 0 15 6 24 15 24 12 0 15 14 15 68 1 39 7 77 15 92 19 34 19
96 0 104 -8 3 -45 8 -80 12 -36 4 -68 11 -71 15 -3 5 3 9 13 9 41 1 47 14 33
79 -10 46 -17 61 -30 61 -24 0 -34 40 -14 55 22 15 8 65 -17 65 -10 0 -19 4
-19 9 0 5 -3 16 -6 25 -4 11 -1 16 10 16 20 0 20 10 1 80 -9 31 -13 72 -9 95
6 45 -9 96 -28 94 -7 -1 -96 -12 -198 -26z m-672 -345 c-64 -20 -83 -38 -56
-54 7 -4 8 -3 4 4 -4 8 -2 10 7 6 8 -3 38 1 66 10 28 8 51 11 51 6 0 -5 -12
-12 -27 -16 -16 -3 -43 -10 -61 -16 -18 -5 -39 -7 -47 -4 -7 2 -16 0 -18 -7
-3 -9 -14 -7 -37 7 l-33 19 6 -22 c7 -29 -18 -39 -42 -17 -23 21 -28 20 -35
-7 -5 -20 -19 -28 -81 -46 -42 -12 -80 -19 -85 -16 -4 3 -10 0 -12 -6 -3 -8
-14 -7 -36 5 -31 16 -32 16 -32 -4 0 -19 7 -20 248 -23 136 -1 36 -2 -223 -2
-259 -1 -410 1 -337 2 83 2 131 7 127 13 -3 6 -2 10 4 10 5 0 13 -4 16 -10 10
-17 42 -11 47 8 5 19 88 48 88 31 0 -4 -15 -11 -34 -15 -19 -3 -37 -12 -40
-20 -5 -12 4 -15 44 -13 48 2 49 3 43 31 -6 32 -3 33 36 14 28 -15 28 -15 24
12 -3 19 -2 23 5 14 7 -11 10 -11 15 2 4 9 15 16 25 16 10 0 22 3 26 7 3 4 13
8 20 9 7 1 29 5 47 9 56 12 21 -12 -41 -27 -36 -10 -56 -20 -58 -31 -4 -19 32
-25 43 -7 3 6 -1 7 -9 4 -9 -3 -16 -1 -16 5 0 6 9 11 21 11 11 0 29 5 40 11
11 5 28 8 37 6 11 -3 6 -7 -15 -12 -18 -4 -33 -11 -33 -15 0 -4 18 -2 40 3 39
11 44 18 43 63 -1 18 23 11 53 -15 l26 -23 -7 31 c-8 36 -5 37 36 16 l30 -16
-7 27 c-5 19 -3 25 4 20 6 -4 19 -2 29 3 25 15 83 29 113 29 14 0 -5 -9 -42
-20z m-333 -368 c4 -6 11 -8 16 -4 5 3 8 0 7 -7 -2 -6 3 -14 10 -16 7 -3 12 4
12 19 0 17 3 19 9 9 6 -9 11 -10 15 -2 9 15 146 15 146 0 0 -6 -16 -10 -37 -9
-79 4 -103 0 -103 -15 0 -10 9 -15 28 -14 24 0 25 1 7 9 -14 6 -2 8 40 8 50
-1 54 -2 25 -7 l-35 -7 43 -5 c40 -4 45 -2 58 23 18 36 30 35 49 -2 21 -41 18
-50 -7 -20 l-20 25 -15 -22 c-14 -21 -23 -23 -99 -23 -60 0 -84 4 -84 13 0 8
-3 7 -10 -3 -7 -12 -13 -11 -34 10 -26 23 -26 23 -26 2 0 -19 -5 -22 -46 -22
-27 0 -43 4 -39 10 3 6 19 10 36 10 21 0 29 5 29 18 0 15 -6 17 -35 14 -21 -3
-35 0 -35 7 0 14 86 15 95 1z"/>
</g>
</svg>
