<?xml version="1.0" standalone="no"?>
<!DOCTYPE svg PUBLIC "-//W3C//DTD SVG 20010904//EN"
 "http://www.w3.org/TR/2001/REC-SVG-20010904/DTD/svg10.dtd">
<svg version="1.0" xmlns="http://www.w3.org/2000/svg"
 width="300.000000pt" height="300.000000pt" viewBox="0 0 300.000000 300.000000"
 preserveAspectRatio="xMidYMid meet">
<metadata>
Created by potrace 1.16, written by Peter Selinger 2001-2019
</metadata>
<g transform="translate(0.000000,300.000000) scale(0.100000,-0.100000)"
fill="#000000" stroke="none">
<path d="M526 2660 l79 -80 128 0 129 0 -3 -602 c-1 -332 -5 -609 -7 -615 -3
-9 -33 -13 -106 -13 -99 0 -103 -1 -129 -28 -32 -34 -34 -52 -6 -52 15 0 19
-4 15 -16 -3 -9 -6 -23 -7 -32 0 -14 -2 -13 -9 3 -8 18 -10 16 -14 -14 -2 -19
-18 -25 -64 -22 -45 2 -49 0 -105 -57 -55 -55 -61 -59 -103 -57 l-44 2 0 -427
c0 -359 2 -429 14 -439 10 -9 61 -12 164 -10 82 1 153 -1 158 -4 5 -3 63 -4
129 -1 66 2 290 4 498 4 288 1 377 4 377 13 0 9 2 9 8 0 8 -13 142 -16 680
-14 308 1 362 3 362 15 0 8 5 18 12 22 7 4 8 3 4 -4 -4 -8 0 -12 11 -12 14 0
15 -2 4 -9 -9 -6 -5 -9 14 -9 16 0 22 4 15 8 -8 5 -4 9 10 13 16 4 20 2 16 -9
-7 -18 39 -20 50 -2 4 7 8 227 9 489 2 435 1 477 -14 471 -14 -5 -14 -4 1 11
23 24 25 257 2 257 -8 0 -12 5 -9 10 4 6 11 8 16 5 12 -8 -2 28 -15 37 -7 5
-4 8 7 8 9 0 17 4 17 10 0 5 -8 14 -17 20 -12 8 -13 10 -3 7 13 -4 15 37 15
327 l0 331 -22 -3 c-21 -3 -23 1 -23 42 0 25 0 49 -1 53 0 4 4 9 10 11 6 2 11
-10 11 -27 0 -21 5 -31 15 -31 11 0 12 5 5 25 -5 14 -6 25 -2 25 4 0 7 31 7
70 0 51 -4 70 -13 70 -10 0 -12 -12 -8 -45 4 -35 2 -45 -9 -45 -11 0 -15 13
-15 55 0 51 2 55 22 52 21 -2 23 2 22 54 -1 31 -5 62 -9 70 -5 7 -4 14 2 16
10 4 8 110 -2 140 -3 9 -115 12 -465 13 l-462 0 34 -39 c44 -51 89 -88 113
-92 19 -4 29 -40 16 -64 -3 -5 -5 -34 -6 -64 l0 -53 -452 -5 c-317 -3 -453 -1
-453 6 0 6 -7 11 -15 11 -10 0 -15 17 -18 68 -2 37 -4 -204 -5 -535 -2 -474
-5 -603 -14 -604 -7 0 -23 -2 -35 -5 l-23 -4 -2 463 -3 462 -2 -457 c-3 -396
-5 -458 -18 -458 -13 0 -15 43 -18 298 l-2 297 -3 -297 c-2 -300 -3 -305 -36
-299 -5 1 -5 -6 -2 -16 6 -15 4 -15 -12 3 -13 13 -18 30 -15 50 2 16 0 101 -5
189 l-9 160 -2 -192 c0 -121 -5 -193 -11 -193 -7 0 -10 208 -10 605 0 549 4
641 23 593 4 -10 6 -10 6 0 1 7 15 12 35 12 19 0 37 -6 39 -12 4 -10 6 -10 6
0 1 6 8 12 16 12 12 0 15 13 15 60 l0 59 58 4 57 3 -57 2 c-46 2 -58 5 -58 18
0 13 -7 15 -32 10 -61 -11 -89 -12 -94 -4 -8 12 -128 10 -141 -3 -8 -8 -13 -8
-17 0 -5 7 -56 11 -143 11 l-135 0 78 -80z m1018 -395 c14 -6 17 -5 12 3 -5 9
11 12 58 12 42 0 66 -4 69 -12 3 -10 7 -10 18 -1 20 16 179 7 198 -12 11 -10
17 -50 22 -132 9 -136 9 -138 19 -98 l8 30 1 -30 c1 -23 3 -27 11 -15 8 13 10
12 10 -2 0 -13 -8 -18 -27 -19 l-28 -2 29 -4 c22 -4 26 -7 15 -14 -12 -8 -12
-10 0 -18 14 -9 7 -31 -10 -31 -6 0 -8 4 -5 9 3 4 -3 16 -14 26 -19 17 -19 14
-22 -161 -2 -99 0 -180 5 -182 11 -6 8 -32 -4 -32 -8 0 -9 -22 -4 -75 8 -84
-1 -105 -41 -105 -31 0 -93 55 -78 70 7 7 18 2 37 -20 54 -60 59 -46 63 174 2
99 6 273 9 386 4 113 3 213 0 223 -5 11 -17 17 -39 16 -30 -1 -30 -1 -6 -9 14
-4 19 -8 11 -9 -8 -1 -11 -4 -8 -8 4 -3 0 -18 -9 -31 -16 -24 -15 -26 4 -41
21 -16 21 -21 15 -273 -5 -227 -8 -258 -22 -259 -11 0 -10 -3 5 -9 16 -6 19
-15 16 -44 -2 -20 -8 -36 -14 -36 -5 0 -6 -4 -3 -10 8 -14 -170 -13 -196 0
-16 9 -19 7 -19 -10 0 -11 -7 -20 -15 -20 -8 0 -15 9 -15 20 0 17 -3 19 -19
10 -11 -5 -63 -10 -115 -10 l-96 0 0 50 c0 41 3 50 18 51 16 1 16 2 0 6 -20 5
-19 -16 -18 323 0 199 -1 218 -20 248 -21 34 -27 78 -10 67 6 -3 10 -14 10
-24 0 -27 24 -71 39 -71 11 0 10 5 -3 25 -9 13 -16 38 -16 54 0 23 5 30 23 33
37 6 131 2 151 -7z m-204 -760 c43 -43 59 -65 47 -65 -9 0 -17 -4 -17 -9 0
-13 56 -18 98 -10 26 6 32 4 32 -11 0 -28 -25 -42 -72 -38 -52 5 -68 13 -68
36 0 27 -107 129 -121 115 -7 -7 -2 -20 20 -45 24 -27 28 -37 18 -47 -9 -10
-7 -12 13 -9 19 2 33 -6 58 -35 29 -35 40 -57 28 -57 -2 0 -11 -3 -20 -6 -10
-4 -16 -1 -16 8 0 19 -34 50 -50 46 -7 -2 -23 15 -35 37 -13 23 -33 42 -46 45
-13 3 -24 11 -23 18 1 7 2 21 3 32 2 28 36 60 64 60 15 0 45 -23 87 -65z m310
-462 l0 -53 -277 -1 c-156 0 -269 -4 -258 -8 29 -13 71 -63 67 -83 -2 -12 5
-18 25 -21 25 -3 24 -4 -8 -6 -28 -1 -42 6 -69 34 -26 27 -30 35 -16 35 9 0
14 5 11 11 -4 6 -19 7 -36 4 -16 -4 -29 -3 -28 2 6 32 -2 33 -171 33 l-170 0
0 49 c0 27 5 51 10 53 6 2 215 3 465 3 l455 0 0 -52z m966 16 c3 -6 -4 -7 -18
-4 -32 8 -57 -19 -41 -43 6 -10 21 -17 34 -17 l24 0 -2 -145 -1 -145 -44 -6
c-23 -4 -46 -5 -50 -2 -5 2 -8 -1 -8 -7 0 -6 -4 -9 -8 -6 -5 3 -77 6 -160 7
-149 2 -152 2 -152 23 0 22 -17 46 -31 46 -4 0 -15 -7 -23 -16 -15 -14 -16 0
-16 155 l0 171 245 0 c149 -1 247 -5 251 -11z m-406 -646 c0 -8 12 -13 30 -13
22 0 30 -5 30 -18 0 -10 20 -39 45 -64 40 -41 42 -46 24 -51 -23 -6 -72 34
-51 41 21 7 13 22 -11 22 -13 0 -37 11 -52 24 -24 21 -30 22 -42 10 -11 -10
-19 -11 -34 -4 -30 17 -23 38 14 42 l32 3 -30 15 c-16 8 -37 29 -45 47 -8 17
-25 34 -36 37 -12 3 -49 35 -83 72 -51 54 -60 68 -50 81 11 12 32 -5 136 -109
68 -67 123 -128 123 -135z"/>
<path d="M1463 2118 c-13 -6 -24 -18 -25 -27 0 -9 -3 -27 -5 -41 -16 -108 -16
-108 6 -119 29 -16 29 -66 0 -82 -19 -10 -21 -16 -14 -77 3 -37 8 -74 11 -84
8 -27 61 -38 191 -38 116 0 125 1 147 23 18 18 25 40 31 92 6 64 5 71 -14 83
-28 19 -28 65 0 83 19 13 20 20 14 86 -11 109 -8 108 -177 110 -90 2 -151 -2
-165 -9z"/>
<path d="M879 1068 c-1 -2 -3 -13 -4 -25 l-2 -23 378 0 379 0 0 25 0 25 -375
0 c-206 0 -376 -1 -376 -2z"/>
<path d="M713 1763 c-1 -231 2 -295 12 -310 11 -14 18 -16 32 -7 15 9 18 27
21 109 2 88 1 96 -13 82 -9 -9 -22 -14 -30 -11 -12 5 -15 44 -18 217 -2 179
-3 167 -4 -80z"/>
</g>
</svg>
