<?xml version="1.0" standalone="no"?>
<!DOCTYPE svg PUBLIC "-//W3C//DTD SVG 20010904//EN"
 "http://www.w3.org/TR/2001/REC-SVG-20010904/DTD/svg10.dtd">
<svg version="1.0" xmlns="http://www.w3.org/2000/svg"
 width="300.000000pt" height="300.000000pt" viewBox="0 0 300.000000 300.000000"
 preserveAspectRatio="xMidYMid meet">
<metadata>
Created by potrace 1.16, written by Peter Selinger 2001-2019
</metadata>
<g transform="translate(0.000000,300.000000) scale(0.100000,-0.100000)"
fill="#000000" stroke="none">
<path d="M462 2115 l3 -670 5 665 5 665 3 -672 c2 -680 4 -715 37 -670 15 21
25 22 25 1 0 -8 5 -12 10 -9 6 4 8 11 5 16 -4 5 1 9 10 9 10 0 15 -7 13 -17
-2 -12 -13 -18 -31 -18 l-27 1 2 -611 3 -610 95 -3 c66 -1 90 1 80 8 -12 8
-11 10 8 10 13 0 20 -4 17 -10 -3 -6 5 -10 19 -10 13 0 27 6 29 13 4 9 6 9 6
0 1 -10 56 -13 241 -13 221 0 240 1 241 18 4 61 -2 57 82 60 l77 3 0 -41 0
-40 565 0 c413 1 566 4 572 13 7 11 7 679 1 1592 -3 441 -5 490 -19 489 -12
-1 -16 9 -17 42 -2 37 1 43 20 47 13 3 -3 5 -34 4 -51 -2 -57 0 -61 20 -2 12
1 20 7 18 29 -10 75 -12 87 -4 15 9 21 79 7 79 -4 0 -8 8 -8 18 0 14 2 15 10
2 7 -12 10 -8 10 15 0 17 -4 25 -8 20 -4 -6 -22 -8 -39 -5 -24 4 -30 8 -24 19
6 9 14 10 27 3 22 -11 44 -5 44 11 0 16 -92 9 -102 -7 -5 -6 -5 5 -2 24 4 19
8 36 9 38 1 1 23 3 49 5 l47 2 -3 50 -3 50 -39 3 c-24 2 -42 -2 -47 -10 -5 -7
-9 -8 -9 -3 0 14 -76 17 -495 16 -77 0 -102 3 -108 14 -12 23 -737 22 -737 0
0 -17 13 -16 -242 -17 -167 -1 -179 0 -200 19 -19 17 -39 22 -120 25 l-98 4 2
-671z m388 219 c30 -7 90 -36 97 -48 9 -13 -16 -23 -45 -19 -25 4 -25 3 6 -13
23 -12 30 -20 23 -27 -8 -8 -15 -7 -23 1 -7 7 -27 12 -45 12 -19 0 -36 6 -39
13 -8 21 -121 13 -152 -10 -53 -39 -78 -131 -51 -186 7 -16 2 -13 -16 8 -26
30 -29 60 -9 109 5 13 4 17 -3 13 -7 -5 -9 0 -6 13 3 13 -1 22 -11 26 -9 4
-22 16 -28 28 -10 19 -10 20 5 7 15 -12 17 -11 18 10 1 18 2 19 6 6 4 -15 7
-16 20 -5 14 11 15 10 9 -10 -8 -25 11 -32 21 -7 7 19 55 45 83 45 12 0 18 5
15 10 -4 6 5 10 19 10 29 0 33 9 14 29 -8 8 1 6 22 -4 l35 -18 -22 25 c-32 34
-29 44 5 13 15 -14 38 -28 52 -31z m-168 -116 c-14 -14 -16 -32 -3 -23 5 3 21
0 35 -6 20 -9 35 -8 73 4 40 13 45 13 28 1 -11 -8 -37 -17 -57 -21 -21 -3 -40
-9 -43 -13 -7 -12 81 8 115 25 16 9 30 13 30 11 0 -9 -57 -36 -97 -46 -37 -9
-37 -10 11 -6 38 3 45 1 32 -6 -10 -6 -38 -8 -61 -5 -45 5 -76 -5 -56 -17 6
-4 11 -13 11 -19 -1 -7 -10 -1 -20 12 -11 13 -20 19 -20 13 0 -5 7 -15 15 -22
8 -7 15 -18 15 -25 0 -7 6 -15 14 -18 8 -3 16 -18 18 -34 2 -15 8 -26 13 -23
6 2 9 10 7 17 -2 7 2 13 8 13 9 0 15 -22 11 -43 -1 -5 8 -5 20 -2 15 5 19 4
15 -4 -4 -6 -20 -11 -37 -11 -30 0 -38 -17 -17 -38 18 -18 89 -14 125 8 53 32
90 129 57 148 -18 10 -54 5 -54 -8 0 -5 6 -11 13 -13 6 -3 3 -6 -9 -6 -11 -1
-29 6 -40 14 -18 14 -18 14 4 8 26 -6 29 5 5 23 -16 12 -16 12 5 7 16 -4 22
-1 22 10 0 9 -8 18 -17 20 -13 3 -14 5 -3 6 8 0 28 -10 44 -24 29 -25 39 -29
66 -25 12 1 13 -1 3 -11 -17 -17 -17 -46 0 -52 8 -4 7 -6 -3 -6 -8 -1 -20 -12
-26 -26 -10 -20 -9 -25 5 -28 11 -3 8 -5 -6 -6 -13 0 -23 -7 -23 -15 0 -8 -10
-22 -21 -30 -14 -10 -19 -21 -15 -32 5 -14 4 -15 -8 -5 -19 16 -61 4 -75 -22
l-12 -22 5 22 c3 16 -2 22 -20 26 -13 2 -24 1 -24 -3 0 -4 -7 -10 -15 -14 -12
-4 -13 -2 -5 13 11 21 -8 35 -35 25 -18 -7 -20 12 -2 20 10 5 10 7 0 12 -7 3
-13 12 -13 20 0 12 -4 12 -20 4 -24 -13 -25 -7 -4 25 9 14 12 25 6 25 -15 0
-35 86 -28 124 7 35 53 102 64 91 3 -3 0 -11 -6 -17z m1658 -1242 c0 -6 -18
-29 -40 -49 -23 -20 -36 -37 -30 -37 5 0 10 -8 10 -18 0 -12 7 -18 23 -17 35
0 35 -20 0 -23 -30 -3 -33 -1 -33 22 l0 26 -170 0 -170 0 0 35 0 35 150 0 150
0 0 -24 c0 -14 4 -27 8 -30 5 -3 6 8 4 25 -4 26 -1 29 24 30 56 2 59 4 58 26
0 12 3 20 8 17 4 -3 8 -11 8 -18z m-1549 -73 c32 -19 46 -62 30 -92 -22 -40
-101 -80 -101 -51 0 6 -5 10 -11 10 -32 0 -56 59 -39 100 20 48 72 62 121 33z"/>
</g>
</svg>
