<?xml version="1.0" standalone="no"?>
<!DOCTYPE svg PUBLIC "-//W3C//DTD SVG 20010904//EN"
 "http://www.w3.org/TR/2001/REC-SVG-20010904/DTD/svg10.dtd">
<svg version="1.0" xmlns="http://www.w3.org/2000/svg"
 width="300.000000pt" height="300.000000pt" viewBox="0 0 300.000000 300.000000"
 preserveAspectRatio="xMidYMid meet">

<g transform="translate(0.000000,300.000000) scale(0.100000,-0.100000)"
fill="#000000" stroke="none">
<path d="M438 2195 c-57 -24 -74 -36 -76 -54 -8 -53 2 -53 120 0 108 47 186
66 343 81 17 2 -48 4 -142 4 -172 1 -173 1 -245 -31z"/>
<path d="M858 2221 c-1 -5 -84 -59 -183 -121 -232 -145 -305 -192 -305 -197 0
-5 34 13 83 44 22 14 37 18 37 11 0 -19 -52 -212 -60 -221 -3 -4 -21 23 -38
61 -27 57 -32 81 -32 142 0 58 -4 76 -17 86 -25 19 -30 17 -35 -11 -4 -16 -1
-25 8 -25 8 0 14 -17 16 -47 6 -89 -10 -458 -21 -499 -7 -27 -10 -141 -9 -325
1 -156 4 -257 6 -224 4 78 20 90 115 86 89 -3 107 3 107 38 0 26 4 29 46 35
26 3 68 6 94 6 41 0 49 -3 54 -23 8 -33 62 -34 71 0 9 36 39 26 43 -15 3 -32
4 -32 58 -32 41 0 54 4 54 15 0 8 5 15 10 15 6 0 10 -7 10 -15 0 -13 47 -15
365 -15 313 0 365 2 365 15 0 11 10 13 50 8 48 -6 50 -5 50 19 l0 24 428 -4
427 -3 80 33 80 34 3 147 3 147 -36 76 c-19 42 -35 80 -35 85 0 4 12 21 26 38
22 26 24 34 13 47 -10 12 -10 15 1 12 7 -2 14 3 15 10 2 7 1 8 -2 2 -2 -5 -9
-8 -14 -4 -5 3 -12 -2 -15 -10 -11 -29 -20 -17 -23 30 -6 115 -79 262 -174
350 -63 59 -129 97 -217 125 -54 18 -54 18 -18 18 20 1 43 7 51 15 8 8 27 16
43 19 16 2 -13 5 -64 6 -51 0 -91 -2 -89 -6 3 -5 -40 -7 -94 -5 -97 2 -101 2
-144 -28 -24 -16 -54 -34 -67 -40 -13 -5 -50 -31 -84 -57 -34 -26 -95 -74
-137 -107 -42 -32 -74 -63 -70 -69 3 -5 1 -7 -5 -3 -6 3 -13 2 -17 -3 -3 -6
-26 -20 -51 -33 -56 -28 -61 -35 -24 -32 16 1 52 16 79 32 l49 31 -26 -72
c-24 -65 -27 -86 -27 -204 0 -117 -2 -132 -18 -137 -9 -2 -14 0 -11 5 3 6 -5
8 -19 5 -19 -3 -27 2 -36 20 -13 30 -15 226 -2 272 5 17 6 32 2 32 -16 0 -35
-119 -36 -220 0 -101 -1 -105 -23 -108 -21 -3 -21 -1 -16 45 5 48 5 48 -10 18
l-14 -30 -1 48 c-1 30 -5 47 -13 47 -8 0 -9 3 -3 8 19 13 22 53 11 115 -2 15
-1 27 3 27 11 0 20 -35 22 -80 0 -19 5 -46 10 -60 15 -46 -1 103 -18 155 -44
140 -156 278 -273 338 -47 24 -50 27 -22 23 20 -4 31 -2 27 4 -3 5 1 7 9 4 8
-3 25 1 38 10 23 15 27 14 74 -18 72 -49 158 -146 194 -220 l32 -65 43 47 c81
89 217 247 236 273 l18 26 -271 6 c-384 10 -736 9 -740 -2z m95 -28 c-7 -2
-19 -2 -25 0 -7 3 -2 5 12 5 14 0 19 -2 13 -5z m60 0 c-7 -2 -21 -2 -30 0 -10
3 -4 5 12 5 17 0 24 -2 18 -5z m1274 1 c-3 -3 -12 -4 -19 -1 -8 3 -5 6 6 6 11
1 17 -2 13 -5z m-1410 -10 c-3 -3 -12 -4 -19 -1 -8 3 -5 6 6 6 11 1 17 -2 13
-5z m1654 -141 c13 -16 12 -17 -3 -4 -10 7 -18 15 -18 17 0 8 8 3 21 -13z
m-1361 -68 c0 -8 -4 -15 -8 -15 -5 0 -9 7 -9 15 0 8 4 15 9 15 4 0 8 -7 8 -15z
m-248 -40 c19 -22 23 -45 9 -45 -5 0 -13 9 -16 20 -3 11 -14 20 -22 20 -9 0
-13 3 -10 6 3 4 1 16 -5 28 -11 20 -10 20 8 6 10 -8 27 -24 36 -35z m891 38
c-7 -2 -19 -2 -25 0 -7 3 -2 5 12 5 14 0 19 -2 13 -5z m75 0 c-10 -2 -28 -2
-40 0 -13 2 -5 4 17 4 22 1 32 -1 23 -4z m-718 -58 c0 -19 -4 -35 -8 -35 -4 0
-7 16 -7 35 0 19 3 35 8 35 4 0 7 -16 7 -35z m1453 18 c-7 -2 -19 -2 -25 0 -7
3 -2 5 12 5 14 0 19 -2 13 -5z m10 -20 c-7 -2 -21 -2 -30 0 -10 3 -4 5 12 5
17 0 24 -2 18 -5z m-1648 -50 c6 -29 4 -33 -14 -33 -12 0 -21 4 -21 10 0 5 7
7 15 4 18 -7 18 -8 5 35 -5 19 -6 30 -1 25 5 -5 12 -24 16 -41z m1632 31 c-3
-3 -12 -4 -19 -1 -8 3 -5 6 6 6 11 1 17 -2 13 -5z m-2069 -34 c10 0 3 -7 -15
-16 -18 -9 -33 -23 -33 -32 0 -8 -3 -13 -6 -9 -3 3 2 25 12 48 12 26 20 35 22
25 2 -9 11 -16 20 -16z m19 14 c-3 -3 -12 -4 -19 -1 -8 3 -5 6 6 6 11 1 17 -2
13 -5z m312 -34 c26 -13 33 -37 13 -45 -9 -3 -13 -3 -9 1 4 4 -3 18 -15 31
-23 24 -19 29 11 13z m277 -7 c-2 -10 -11 -19 -22 -20 -18 -3 -18 -2 1 6 14 7
15 10 5 10 -13 1 -13 2 0 11 19 13 19 13 16 -7z m936 -12 c20 -19 27 -31 19
-35 -6 -4 -10 -3 -9 3 2 5 -12 21 -31 35 -19 14 -29 26 -22 26 6 0 26 -13 43
-29z m-635 13 c-3 -3 -12 -4 -19 -1 -8 3 -5 6 6 6 11 1 17 -2 13 -5z m523 -4
c0 -5 -4 -10 -10 -10 -5 0 -10 5 -10 10 0 6 5 10 10 10 6 0 10 -4 10 -10z
m-1033 -16 c-3 -3 -12 -4 -19 -1 -8 3 -5 6 6 6 11 1 17 -2 13 -5z m516 -1 c-7
-2 -21 -2 -30 0 -10 3 -4 5 12 5 17 0 24 -2 18 -5z m260 -20 c-7 -2 -19 -2
-25 0 -7 3 -2 5 12 5 14 0 19 -2 13 -5z m-870 -25 c-11 -13 -25 -32 -31 -43
-6 -11 -12 -15 -12 -8 0 12 48 73 58 73 3 0 -4 -10 -15 -22z m273 -40 c8 -15
14 -31 14 -35 -1 -4 -8 6 -17 22 -8 17 -25 41 -37 55 l-21 25 24 -20 c12 -11
29 -32 37 -47z m1199 42 c10 -11 16 -20 13 -20 -3 0 -13 9 -23 20 -10 11 -16
20 -13 20 3 0 13 -9 23 -20z m-235 6 c0 -2 -8 -10 -17 -17 -16 -13 -17 -12 -4
4 13 16 21 21 21 13z m-900 -48 c-16 -17 -33 -29 -36 -25 -4 4 -2 7 5 7 7 0
10 4 6 9 -3 5 5 17 17 25 36 25 39 19 8 -16z m1347 17 c0 -8 -7 -15 -15 -15
-12 0 -12 3 -2 15 7 8 13 15 15 15 1 0 2 -7 2 -15z m-549 -2 c-10 -2 -28 -2
-40 0 -13 2 -5 4 17 4 22 1 32 -1 23 -4z m37 -3 c3 -5 1 -10 -4 -10 -6 0 -11
5 -11 10 0 6 2 10 4 10 3 0 8 -4 11 -10z m28 -15 c-3 -9 -8 -14 -10 -11 -3 3
-2 9 2 15 9 16 15 13 8 -4z m662 -6 c-4 -5 -2 -9 3 -9 5 0 9 -7 9 -15 0 -8 -5
-15 -11 -15 -6 0 -4 -5 4 -10 17 -11 6 -13 -26 -4 -22 6 -23 34 -1 61 10 14
31 7 22 -8z m-2193 -37 c-7 -2 -10 -7 -8 -10 2 -4 -5 -16 -15 -26 -19 -19 -19
-19 -19 11 0 32 14 44 39 35 11 -4 11 -7 3 -10z m285 -4 c-3 -8 -6 -5 -6 6 -1
11 2 17 5 13 3 -3 4 -12 1 -19z m1061 15 c-10 -2 -26 -2 -35 0 -10 3 -2 5 17
5 19 0 27 -2 18 -5z m-882 -26 c4 -4 12 -3 18 1 6 4 26 7 44 7 28 0 32 -3 28
-20 -3 -11 -6 -23 -6 -26 0 -4 -27 -7 -61 -8 -58 -1 -60 0 -54 21 l6 23 -17
-22 c-9 -13 -21 -23 -26 -23 -6 0 -8 10 -5 23 6 22 6 22 -14 -2 -22 -27 -34
-23 -24 8 3 11 16 21 28 23 33 5 76 2 83 -5z m837 6 c-7 -2 -19 -2 -25 0 -7 3
-2 5 12 5 14 0 19 -2 13 -5z m392 -5 c4 -4 17 -3 27 3 14 8 23 8 31 0 8 -8 6
-11 -8 -11 -16 0 -17 -2 -6 -9 10 -7 19 -4 27 7 15 21 28 10 20 -16 -5 -16
-17 -20 -65 -21 -56 -1 -59 0 -53 21 3 14 2 19 -6 14 -7 -4 -12 -14 -12 -22 0
-8 -7 -14 -16 -14 -11 0 -14 6 -9 23 6 21 6 21 -14 -3 -22 -27 -36 -23 -26 9
3 11 16 21 28 23 37 5 75 3 82 -4z m-1068 -20 c-3 -8 -6 -5 -6 6 -1 11 2 17 5
13 3 -3 4 -12 1 -19z m160 6 c-3 -3 -12 -4 -19 -1 -8 3 -5 6 6 6 11 1 17 -2
13 -5z m648 -4 c-3 -5 -11 -10 -16 -10 -6 0 -7 5 -4 10 3 6 11 10 16 10 6 0 7
-4 4 -10z m702 4 c-3 -3 -12 -4 -19 -1 -8 3 -5 6 6 6 11 1 17 -2 13 -5z m80
-10 c-3 -3 -12 -4 -19 -1 -8 3 -5 6 6 6 11 1 17 -2 13 -5z m-1490 -10 c-3 -3
-12 -4 -19 -1 -8 3 -5 6 6 6 11 1 17 -2 13 -5z m1396 -1 c-7 -2 -19 -2 -25 0
-7 3 -2 5 12 5 14 0 19 -2 13 -5z m-1448 -22 c-3 -6 -14 -11 -23 -11 -13 0
-13 2 4 14 21 15 30 14 19 -3z m512 4 c0 -8 -4 -12 -9 -9 -4 3 -8 9 -8 15 0 5
4 9 8 9 5 0 9 -7 9 -15z m916 -2 c-7 -2 -19 -2 -25 0 -7 3 -2 5 12 5 14 0 19
-2 13 -5z m-716 -19 c-3 -3 -12 -4 -19 -1 -8 3 -5 6 6 6 11 1 17 -2 13 -5z
m696 -1 c-7 -2 -19 -2 -25 0 -7 3 -2 5 12 5 14 0 19 -2 13 -5z m-60 -28 c-5
-13 -23 -22 -23 -11 0 15 14 35 21 31 4 -3 6 -12 2 -20z m-830 8 c-7 -2 -19
-2 -25 0 -7 3 -2 5 12 5 14 0 19 -2 13 -5z m180 0 c-7 -2 -19 -2 -25 0 -7 3
-2 5 12 5 14 0 19 -2 13 -5z m818 -25 c-4 -13 -6 -29 -4 -35 3 -7 -2 -13 -11
-13 -20 0 -20 0 0 38 18 37 27 42 15 10z m-1004 6 c-3 -3 -12 -4 -19 -1 -8 3
-5 6 6 6 11 1 17 -2 13 -5z m166 -1 c-7 -2 -19 -2 -25 0 -7 3 -2 5 12 5 14 0
19 -2 13 -5z m-16 -19 c-3 -3 -12 -4 -19 -1 -8 3 -5 6 6 6 11 1 17 -2 13 -5z
m-1043 -48 c-10 -20 -21 -36 -26 -36 -5 0 1 18 12 41 26 50 38 46 14 -5z
m1246 5 c-5 -11 -15 -23 -22 -27 -6 -4 -9 -3 -6 2 3 5 8 17 11 27 4 9 11 17
17 17 8 0 8 -6 0 -19z m644 -10 c3 -4 0 -16 -7 -25 -11 -15 -13 -15 -15 8 -2
25 11 35 22 17z m-554 -43 c0 -19 -2 -20 -10 -8 -13 19 -13 30 0 30 6 0 10
-10 10 -22z m-1625 1 c-4 -5 -2 -9 3 -9 5 0 7 -12 4 -26 -5 -27 -12 -23 -29
16 -9 22 -8 26 8 27 11 1 17 -2 14 -8z m1068 -3 c4 -10 1 -13 -9 -9 -8 3 -14
1 -12 -5 2 -6 -41 -42 -95 -81 -53 -39 -93 -63 -88 -53 11 21 61 68 61 58 0
-4 7 0 16 8 8 9 22 16 30 16 8 0 14 4 14 9 0 5 14 14 30 21 17 7 28 15 25 18
-4 4 13 32 20 32 2 0 5 -7 8 -14z m957 4 c0 -5 -10 -10 -22 -10 -19 0 -20 2
-8 10 19 13 30 13 30 0z m-1407 -7 c-7 -2 -19 -2 -25 0 -7 3 -2 5 12 5 14 0
19 -2 13 -5z m215 -40 c-10 -2 -26 -2 -35 0 -10 3 -2 5 17 5 19 0 27 -2 18 -5z
m75 0 c-7 -2 -21 -2 -30 0 -10 3 -4 5 12 5 17 0 24 -2 18 -5z m345 0 c-10 -2
-26 -2 -35 0 -10 3 -2 5 17 5 19 0 27 -2 18 -5z m-341 -19 c-3 -3 -12 -4 -19
-1 -8 3 -5 6 6 6 11 1 17 -2 13 -5z m346 -1 c-7 -2 -21 -2 -30 0 -10 3 -4 5
12 5 17 0 24 -2 18 -5z m993 -40 c-20 -27 -62 -85 -93 -130 -40 -57 -67 -85
-88 -92 -35 -12 -213 -41 -251 -41 -30 0 -56 -18 266 189 102 65 189 119 193
120 5 1 -7 -20 -27 -46z m-1706 22 c0 -8 -2 -15 -4 -15 -2 0 -6 7 -10 15 -3 8
-1 15 4 15 6 0 10 -7 10 -15z m707 -1 c-3 -3 -12 -4 -19 -1 -8 3 -5 6 6 6 11
1 17 -2 13 -5z m769 -79 c0 -14 -3 -25 -6 -25 -4 0 -12 11 -18 25 -10 22 -9
25 6 25 13 0 18 -8 18 -25z m-659 -41 c-3 -3 -12 -4 -19 -1 -8 3 -5 6 6 6 11
1 17 -2 13 -5z m-702 -102 c-72 -61 -89 -67 -180 -69 -105 -3 -100 0 60 43 66
17 122 32 125 33 2 0 0 -3 -5 -7z"/>
<path d="M1020 1656 c0 -2 7 -6 15 -10 8 -3 15 -1 15 4 0 6 -7 10 -15 10 -8 0
-15 -2 -15 -4z"/>
<path d="M980 1640 c0 -5 7 -10 16 -10 8 0 12 5 9 10 -3 6 -10 10 -16 10 -5 0
-9 -4 -9 -10z"/>
<path d="M2215 1640 c-3 -5 1 -10 10 -10 9 0 13 5 10 10 -3 6 -8 10 -10 10 -2
0 -7 -4 -10 -10z"/>
<path d="M2520 2221 l-45 -6 35 -13 c19 -7 62 -32 95 -57 67 -50 77 -55 49
-23 -16 18 -17 20 -2 15 9 -3 33 -9 52 -13 20 -3 36 -10 36 -16 0 -5 5 -6 10
-3 6 4 17 1 25 -5 24 -20 45 -4 45 34 0 34 -1 35 -81 65 -82 31 -121 35 -219
22z"/>
<path d="M2680 2086 c0 -2 8 -10 18 -17 15 -13 16 -12 3 4 -13 16 -21 21 -21
13z"/>
<path d="M2763 1999 c-9 -9 -8 -15 3 -26 8 -8 11 -19 8 -25 -4 -7 -2 -8 4 -4
9 5 9 13 2 26 -13 25 -13 33 2 24 7 -4 8 -3 4 4 -9 15 -9 15 -23 1z"/>
</g>
</svg>
