<?xml version="1.0" standalone="no"?>
<!DOCTYPE svg PUBLIC "-//W3C//DTD SVG 20010904//EN"
 "http://www.w3.org/TR/2001/REC-SVG-20010904/DTD/svg10.dtd">
<svg version="1.0" xmlns="http://www.w3.org/2000/svg"
 width="300.000000pt" height="300.000000pt" viewBox="0 0 300.000000 300.000000"
 preserveAspectRatio="xMidYMid meet">

<g transform="translate(0.000000,300.000000) scale(0.100000,-0.100000)"
fill="#000000" stroke="none">
<path d="M820 2183 c-59 -10 -133 -36 -149 -52 -9 -9 -23 -16 -31 -16 -8 0
-14 -5 -13 -12 2 -7 -3 -10 -11 -7 -18 7 -146 -117 -146 -140 0 -9 -4 -16 -9
-16 -5 0 -17 -26 -27 -57 -10 -32 -20 -60 -23 -63 -13 -11 -16 -39 -15 -134 0
-80 3 -101 17 -111 9 -6 14 -15 10 -18 -9 -10 26 -116 55 -167 28 -49 59 -83
143 -153 66 -56 172 -94 285 -104 65 -5 74 -4 74 11 0 12 -10 16 -47 16 -65 1
-121 15 -141 36 -30 31 -2 294 31 294 6 0 0 11 -13 25 -13 14 -27 25 -31 25
-4 0 -16 -24 -26 -52 -14 -41 -18 -80 -17 -175 1 -68 -1 -123 -3 -123 -15 0
-94 56 -127 89 -52 53 -51 81 3 165 41 62 104 129 130 137 15 5 4 59 -11 59
-25 0 -146 -140 -177 -203 -17 -37 -33 -67 -36 -67 -11 0 -55 101 -61 139 -4
23 -10 41 -15 41 -5 0 -2 15 7 33 12 25 31 40 75 60 32 15 65 27 73 27 21 0
46 11 42 19 -2 3 19 7 47 8 49 2 67 13 67 42 0 31 -172 -10 -257 -61 -47 -29
-53 -36 -54 -68 -1 -34 -1 -34 -11 10 -13 62 -4 130 26 187 36 72 44 76 127
68 40 -4 87 -14 106 -21 18 -8 35 -14 38 -14 3 0 19 -7 36 -15 28 -15 69 -13
69 3 0 12 -113 61 -155 68 -22 3 -73 8 -112 11 -40 3 -73 9 -73 13 0 21 78
101 122 125 15 8 29 24 33 35 3 11 11 20 17 20 5 0 8 -7 4 -15 -4 -10 1 -15
14 -15 11 0 21 1 23 2 9 8 134 -116 178 -177 51 -71 68 -56 24 19 -30 51 -127
146 -173 170 -18 10 -32 22 -30 28 4 12 91 45 141 55 15 3 27 9 27 14 0 9 -7
9 -50 2z m-95 -453 c3 -6 -1 -7 -9 -4 -18 7 -21 14 -7 14 6 0 13 -4 16 -10z"/>
<path d="M950 2181 c42 -5 86 -12 98 -15 29 -10 133 -78 151 -100 29 -35 -18
-173 -83 -240 -22 -22 -36 -35 -31 -27 5 10 4 12 -3 7 -12 -7 -9 -17 16 -54 6
-9 19 3 46 44 43 64 72 142 82 215 7 51 12 57 32 37 7 -7 12 -8 12 -2 0 5 6
-1 13 -13 6 -12 29 -46 50 -77 54 -80 56 -102 13 -151 -20 -22 -39 -40 -43
-40 -5 0 -20 -8 -34 -18 -14 -9 -37 -18 -52 -19 -15 -1 -27 -6 -27 -10 0 -4
-3 -7 -7 -7 -5 1 -11 0 -15 -1 -12 -4 -27 -7 -37 -9 -5 0 -11 -17 -13 -37 -4
-33 -3 -35 21 -29 50 13 160 86 209 140 48 52 52 54 62 35 17 -33 25 -175 11
-209 -15 -35 -27 -40 -107 -48 -68 -6 -159 11 -187 35 -9 8 -18 13 -20 11 -1
-2 -12 -18 -24 -36 -27 -39 -24 -40 94 -48 70 -5 103 -2 160 13 40 11 74 17
77 15 13 -14 -55 -155 -91 -189 -29 -27 -40 -29 -80 -12 -15 6 -30 12 -33 12
-3 1 -26 13 -52 28 -45 27 -108 95 -108 117 0 15 -9 13 -48 -8 l-34 -18 47
-41 c48 -43 126 -86 154 -85 9 0 23 -5 31 -13 8 -7 27 -16 43 -19 37 -10 33
-25 -16 -60 -53 -38 -125 -66 -157 -63 -43 5 -130 157 -133 233 -2 45 -12 54
-58 55 -39 0 31 -173 103 -254 39 -45 41 -49 24 -62 -33 -24 -8 -34 47 -18
237 69 382 246 403 490 8 102 -11 179 -73 292 -53 98 -75 125 -123 155 -19 11
-38 26 -42 31 -4 6 -8 7 -8 2 0 -5 -8 -2 -17 6 -37 32 -136 60 -228 63 l-90 4
75 -8z"/>
<path d="M2075 2180 c113 -8 160 -24 209 -67 23 -22 42 -31 47 -26 13 13 1 41
-23 54 -16 9 -19 8 -12 -3 4 -7 -2 -5 -13 5 -32 28 -120 47 -213 45 l-85 -1
90 -7z"/>
<path d="M1915 2173 c-40 -10 -115 -46 -115 -55 0 -5 -4 -6 -10 -3 -5 3 -10 1
-10 -5 0 -6 -4 -8 -10 -5 -5 3 -10 1 -10 -4 0 -6 -6 -11 -12 -11 -20 -1 -81
-60 -121 -117 -57 -82 -90 -189 -90 -298 0 -49 3 -97 5 -105 3 -8 10 -35 17
-60 40 -141 170 -285 308 -339 73 -29 193 -45 210 -28 11 11 7 13 -24 15 -41
3 -64 8 -105 24 -50 19 -58 101 -24 245 4 18 18 41 30 50 l22 18 -28 23 -28
23 -11 -27 c-23 -62 -31 -133 -26 -221 5 -86 4 -93 -13 -93 -23 0 -136 84
-163 121 -19 26 -19 27 1 71 28 65 123 171 163 183 22 7 27 65 6 65 -34 0
-165 -159 -188 -227 -6 -18 -16 -33 -23 -33 -29 0 -93 160 -82 205 7 26 147
90 238 109 54 11 77 26 78 50 0 14 -99 0 -163 -22 -32 -12 -80 -35 -108 -51
-27 -17 -51 -31 -54 -31 -10 0 -4 87 9 137 8 28 22 63 32 77 17 24 24 25 69
20 73 -8 174 -34 218 -56 33 -16 40 -17 58 -4 20 14 20 14 -3 30 -44 31 -175
66 -249 66 -38 0 -69 4 -69 8 0 14 53 78 85 105 39 32 69 47 92 47 31 0 145
-102 183 -163 25 -40 41 -56 58 -57 26 0 27 2 6 43 -30 56 -87 117 -110 117
-16 0 -24 7 -26 22 -2 13 -19 33 -40 47 -57 36 -50 54 30 79 57 18 56 29 -3
15z"/>
<path d="M949 2130 c35 -30 63 -131 60 -219 -2 -62 1 -75 16 -83 17 -10 17 -4
13 93 -4 89 -9 113 -34 164 -23 47 -34 61 -54 63 l-25 3 24 -21z"/>
<path d="M2346 2075 c-4 -27 -9 -63 -11 -80 -7 -43 -59 -148 -85 -173 -17 -15
-21 -27 -16 -46 7 -30 23 -33 42 -8 17 21 18 36 2 26 -7 -4 -8 -3 -4 5 4 6 11
9 16 6 5 -3 11 4 15 15 3 11 10 20 15 20 11 0 42 98 35 110 -4 6 -1 10 4 10 6
0 11 19 11 43 0 68 12 74 53 28 46 -50 87 -131 87 -169 0 -28 -23 -53 -106
-121 -14 -11 -57 -26 -67 -23 -5 1 -6 -2 -2 -8 4 -6 -7 -10 -28 -10 -26 0 -36
-5 -40 -19 -4 -16 2 -20 32 -24 46 -6 121 40 202 124 l56 58 -28 55 c-15 31
-25 56 -22 56 3 0 0 7 -7 15 -6 8 -9 19 -5 25 4 6 1 9 -7 8 -7 -2 -12 2 -11 9
3 14 -82 93 -101 93 -8 0 -16 6 -19 13 -2 6 -7 -10 -11 -38z m23 -2 c0 -5 -4
-17 -9 -28 -8 -18 -9 -17 -9 8 -1 15 4 27 9 27 6 0 10 -3 9 -7z"/>
<path d="M2137 2100 c-14 -39 -14 -61 1 -77 9 -8 17 -12 19 -7 5 17 -14 99
-20 84z"/>
<path d="M223 2064 c7 -7 27 -15 45 -19 25 -5 32 -3 32 8 0 11 -14 16 -45 19
-34 2 -41 0 -32 -8z"/>
<path d="M317 2043 c-3 -16 -1 -29 4 -31 5 -2 10 -74 11 -160 1 -86 3 -134 4
-107 2 28 9 108 15 179 10 108 9 130 -2 137 -22 14 -26 11 -32 -18z"/>
<path d="M2171 1959 c-1 -41 -5 -59 -16 -63 -8 -3 -15 -10 -15 -16 0 -5 7 -10
15 -10 8 0 15 -9 15 -19 0 -11 5 -23 10 -26 12 -7 12 128 0 165 -6 19 -8 12
-9 -31z"/>
<path d="M2177 1788 c17 -18 36 -43 42 -56 13 -25 17 -95 7 -133 -4 -18 -2
-17 9 6 31 64 9 151 -48 197 -37 29 -43 20 -10 -14z"/>
<path d="M2568 1726 c5 -112 -11 -151 -68 -166 -45 -12 -170 -10 -170 2 0 5
-10 8 -23 8 -13 0 -29 6 -35 12 -10 10 -18 6 -36 -17 -23 -29 -24 -30 -5 -37
66 -25 237 -16 312 17 14 6 17 2 18 -21 1 -25 2 -24 11 11 13 54 16 251 3 264
-7 7 -9 -18 -7 -73z"/>
<path d="M781 1765 c-37 -49 -40 -136 -4 -180 l16 -20 -8 20 c-5 11 -11 44
-13 73 -3 40 1 60 17 88 26 44 21 55 -8 19z"/>
<path d="M1056 1753 c21 -32 25 -47 22 -93 -2 -30 -8 -64 -12 -75 -7 -15 -4
-14 9 4 30 39 31 112 4 160 -12 23 -28 41 -36 41 -8 0 -3 -13 13 -37z"/>
<path d="M1909 1719 c-12 -23 -7 -105 7 -119 5 -5 9 24 9 66 0 40 -1 74 -2 74
-1 0 -7 -10 -14 -21z"/>
<path d="M330 1447 c0 -62 4 -108 10 -112 10 -6 5 204 -5 214 -3 2 -5 -43 -5
-102z"/>
<path d="M2153 1492 l-33 -15 48 -44 c49 -45 162 -106 220 -118 18 -4 31 -12
29 -18 -7 -25 -117 -88 -171 -99 -50 -11 -57 -10 -76 7 -23 21 -61 78 -64 98
-1 6 -7 22 -14 33 -20 37 -27 105 -11 114 10 7 6 12 -14 19 -48 19 -57 15 -51
-21 10 -57 71 -175 113 -221 40 -43 51 -67 31 -67 -5 0 -10 -4 -10 -9 0 -14
92 13 164 49 79 38 181 142 220 225 14 31 26 58 26 62 0 3 -23 -26 -51 -66
-65 -93 -79 -99 -156 -71 -58 21 -123 68 -123 89 0 5 -6 14 -13 18 -7 4 -17
18 -22 29 -10 21 -11 21 -42 6z"/>
<path d="M331 1280 c0 -27 25 -68 35 -57 4 3 3 23 -1 44 -6 31 -9 35 -15 18
l-7 -20 -5 20 c-5 17 -6 16 -7 -5z"/>
<path d="M358 1152 c-29 -6 -20 -22 12 -22 17 0 30 4 30 9 0 12 -21 18 -42 13z"/>
<path d="M2100 1145 c-10 -12 -10 -15 3 -15 8 0 17 7 21 15 3 8 2 15 -3 15 -5
0 -14 -7 -21 -15z"/>
<path d="M392 1108 c3 -7 15 -14 29 -15 15 -1 17 0 6 3 -9 3 -15 10 -12 15 4
5 -1 9 -10 9 -9 0 -15 -6 -13 -12z"/>
<path d="M520 1064 c0 -11 -15 -14 -65 -14 l-65 0 0 -34 c0 -39 11 -50 40 -41
12 4 20 15 20 29 0 13 6 23 15 23 21 0 27 -25 7 -36 -16 -9 -16 -10 0 -16 9
-4 29 -5 45 -3 25 3 28 7 31 46 l3 42 61 0 c80 0 71 6 -19 13 -60 5 -73 3 -73
-9z"/>
<path d="M1160 1069 c-58 -3 -147 -7 -198 -8 l-93 -1 3 -57 3 -58 58 -3 57 -3
0 41 c0 22 5 40 10 40 6 0 10 -18 10 -40 l0 -40 380 0 380 0 0 40 c0 29 4 40
15 40 8 0 15 -4 15 -9 0 -12 48 -23 71 -16 16 5 17 10 8 26 -7 15 -7 24 1 34
9 11 -1 14 -52 18 -97 6 -551 4 -668 -4z"/>
<path d="M750 1020 c0 -22 3 -40 8 -41 61 -8 67 -5 73 39 l5 42 -43 0 -43 0 0
-40z"/>
<path d="M330 1001 c0 -28 -5 -53 -10 -56 -7 -4 -10 -46 -8 -110 1 -57 6 -101
9 -99 4 2 10 29 14 61 6 46 9 53 17 39 6 -10 7 -31 4 -47 -3 -16 -2 -29 3 -29
11 0 21 101 21 206 0 83 0 84 -25 84 -23 0 -25 -3 -25 -49z"/>
</g>
</svg>
