<?xml version="1.0" standalone="no"?>
<!DOCTYPE svg PUBLIC "-//W3C//DTD SVG 20010904//EN"
 "http://www.w3.org/TR/2001/REC-SVG-20010904/DTD/svg10.dtd">
<svg version="1.0" xmlns="http://www.w3.org/2000/svg"
 width="300.000000pt" height="300.000000pt" viewBox="0 0 300.000000 300.000000"
 preserveAspectRatio="xMidYMid meet">

<g transform="translate(0.000000,300.000000) scale(0.100000,-0.100000)"
fill="#000000" stroke="none">
<path d="M744 2797 l-461 -31 -6 -515 c-4 -284 -7 -818 -7 -1188 0 -631 1
-672 18 -677 22 -6 240 -54 693 -151 l357 -76 148 35 c565 133 802 193 824
209 13 9 20 17 13 17 -6 0 -2 16 9 40 18 35 23 39 37 28 14 -11 14 -11 3 3
-11 14 -3 36 47 140 95 196 84 184 188 198 l90 12 6 421 c4 232 7 637 7 900
l0 478 -36 0 c-21 0 -33 -4 -29 -10 3 -5 2 -10 -3 -10 -5 0 -8 -27 -6 -59 2
-58 1 -60 -25 -63 -34 -4 -44 -52 -12 -61 18 -4 20 -1 16 24 -3 16 -1 29 4 29
14 0 17 -19 16 -105 l0 -80 -45 1 c-25 1 -97 3 -160 6 -63 2 -128 1 -145 -3
-24 -5 -25 -7 -7 -8 12 0 22 -7 22 -13 0 -9 4 -8 10 2 6 9 10 10 10 3 0 -6 3
-19 7 -29 4 -12 3 -15 -5 -10 -17 11 -49 -2 -49 -19 0 -9 10 -15 23 -15 13 0
26 -5 30 -12 4 -6 3 -8 -4 -5 -5 4 -18 4 -29 0 -16 -6 -15 -8 7 -14 24 -7 24
-7 -5 -9 l-30 -2 35 -13 c19 -7 27 -14 18 -14 -10 -1 -18 -5 -18 -11 0 -5 8
-10 18 -10 15 -1 15 -2 -2 -15 -19 -14 -18 -15 10 -15 16 0 35 -4 42 -9 19
-12 -7 -21 -61 -22 -36 0 -39 -2 -19 -9 21 -9 22 -11 7 -34 -15 -23 -15 -24
17 -31 29 -6 31 -8 13 -15 -19 -8 -19 -9 2 -9 12 -1 24 -5 27 -10 9 -13 -31
-20 -44 -7 -8 8 -9 5 -2 -14 7 -18 19 -27 43 -31 l34 -6 -31 -2 -31 -1 18 -57
c11 -31 22 -81 26 -111 4 -39 8 -50 15 -38 18 32 39 16 70 -54 17 -38 35 -70
40 -70 6 0 9 21 7 48 -4 73 0 92 16 92 13 0 15 -21 15 -125 0 -115 -2 -125
-18 -125 -13 0 -29 22 -55 78 l-37 77 0 -83 c0 -74 -2 -83 -17 -80 -12 2 -20
16 -24 38 l-6 35 -2 -35 c-4 -86 -64 -241 -98 -254 -10 -4 -14 -4 -11 0 4 4 1
16 -7 28 -8 11 -15 30 -15 42 0 21 -3 22 -87 18 -60 -3 -82 -1 -68 5 11 5 53
10 93 10 78 1 79 2 98 75 5 22 3 23 -40 22 -41 -1 -45 -3 -39 -21 5 -19 5 -19
-14 -2 -25 22 -40 22 -22 0 13 -15 12 -15 -7 -5 -12 6 -51 14 -88 18 l-67 7 3
42 c2 24 6 41 10 39 14 -9 19 18 6 34 -12 15 -11 16 4 3 15 -11 19 -11 24 5 4
11 14 28 23 38 15 18 15 19 -1 13 -12 -4 -15 -2 -11 9 4 11 -6 14 -48 15 -30
1 -43 4 -31 6 21 4 23 9 20 38 -3 27 -1 32 14 30 10 -2 18 0 18 5 0 5 -23 9
-51 8 -28 0 -53 3 -56 6 -4 3 21 6 54 6 45 0 62 4 67 15 3 9 0 15 -10 15 -8 0
-12 5 -9 10 4 6 -8 10 -29 10 -19 0 -36 6 -38 12 -5 15 -38 -13 -38 -31 0 -6
-7 -11 -16 -11 -11 0 -14 5 -9 18 7 19 8 22 6 40 0 7 -5 10 -11 7 -5 -3 -10 3
-10 14 0 10 -3 27 -7 37 -5 12 -3 15 6 9 10 -5 11 -2 6 14 -10 31 70 139 114
153 10 3 7 11 -12 31 -33 32 -33 37 -6 37 17 0 19 3 10 14 -9 11 -9 15 1 19 7
3 -9 6 -37 7 -36 1 -45 4 -30 10 18 7 16 8 -10 12 -17 3 -3 6 33 7 72 1 82 17
17 27 -65 9 -55 24 18 26 l62 1 -50 7 -50 7 44 1 c55 2 49 10 -21 26 l-53 12
45 9 c36 6 41 9 25 16 l-20 8 20 2 c11 1 2 5 -20 9 -39 6 -39 7 -15 18 19 8
21 11 7 11 -36 2 -5 21 36 23 l42 1 -45 7 c-26 4 -34 8 -20 9 20 1 22 3 10 12
-11 7 -6 8 20 3 19 -3 32 -3 28 1 -4 5 -3 14 3 22 9 10 6 13 -12 13 -13 0 -31
5 -39 10 -11 7 -5 10 23 10 35 0 48 12 27 25 -6 4 -8 10 -5 15 3 5 -3 11 -12
13 -11 3 -6 5 11 6 36 1 29 11 -16 21 l-33 8 38 1 c43 1 42 21 -1 21 -15 0
-34 5 -42 10 -11 7 0 10 38 10 30 0 51 4 48 9 -4 5 0 11 6 14 7 2 -12 8 -42
12 l-55 9 60 6 c61 5 62 13 7 30 l-27 8 25 2 c23 1 23 2 5 10 -19 8 -19 9 3 9
38 1 24 18 -20 24 -24 4 -182 27 -353 52 -181 26 -341 44 -385 44 -41 -1 -282
-16 -536 -32z m760 -189 c28 -100 29 -108 13 -108 -8 0 -17 9 -20 20 -6 23
-35 27 -43 5 -4 -8 -12 -15 -19 -15 -10 0 -11 8 -5 33 5 17 14 51 20 75 15 58
36 54 54 -10z m70 16 c6 -10 12 -21 14 -23 1 -3 9 5 18 17 26 37 34 25 34 -53
0 -43 -4 -75 -10 -75 -5 0 -10 19 -10 43 -1 38 -2 40 -14 24 -14 -18 -15 -18
-25 0 -9 15 -10 12 -11 -19 0 -27 -4 -38 -15 -38 -12 0 -15 15 -15 76 0 77 10
92 34 48z m149 -1 c16 -9 28 -58 22 -90 -7 -38 -29 -53 -67 -46 -25 5 -26 8
-26 66 1 81 4 88 37 81 14 -4 30 -9 34 -11z m103 7 l34 0 -1 -87 c0 -71 -2
-84 -11 -65 -13 27 -24 28 -38 3 -5 -11 -18 -18 -27 -17 -24 4 -29 67 -9 98
13 20 13 26 0 42 -19 26 -18 40 2 32 9 -3 31 -6 50 -6z m-1480 -389 c8 -62 14
-117 11 -124 -2 -6 -9 29 -16 78 -6 50 -15 108 -18 130 -3 22 -3 37 1 34 3 -3
13 -56 22 -118z m129 99 c-16 -11 -24 -20 -17 -20 6 0 12 -5 12 -11 0 -6 -7
-9 -15 -6 -10 5 -16 -4 -21 -29 -3 -19 -11 -37 -16 -40 -13 -9 1 66 19 94 7
12 18 20 23 17 6 -4 10 -1 10 4 0 6 8 11 18 11 12 0 8 -6 -13 -20z m-18 -72
c-3 -8 -6 -5 -6 6 -1 11 2 17 5 13 3 -3 4 -12 1 -19z m-90 -205 c-3 -10 -5 -4
-5 12 0 17 2 24 5 18 2 -7 2 -21 0 -30z m10 -75 c-3 -7 -5 -2 -5 12 0 14 2 19
5 13 2 -7 2 -19 0 -25z m1377 -304 c22 -22 22 -127 0 -149 -15 -15 -15 -20 4
-65 21 -50 20 -60 -8 -60 -11 0 -23 18 -35 55 -18 52 -21 55 -52 55 l-33 0 0
-58 c0 -46 -3 -59 -15 -59 -8 0 -15 10 -16 21 -1 26 -1 138 0 149 1 4 30 7 66
7 63 0 65 1 65 25 0 24 -2 25 -65 25 l-65 0 0 29 c0 29 2 30 53 34 28 2 60 4
69 5 9 1 24 -5 32 -14z m111 -36 l24 -52 11 27 c5 15 14 38 20 52 10 27 52 35
66 13 4 -6 3 -8 -3 -5 -17 11 -66 -121 -72 -193 -5 -51 -10 -66 -23 -68 -15
-3 -18 4 -18 48 0 37 -10 75 -35 133 -19 44 -35 84 -35 89 0 4 9 8 20 8 15 0
27 -14 45 -52z m173 -83 c-3 -3 -9 2 -12 12 -6 14 -5 15 5 6 7 -7 10 -15 7
-18z m-41 9 c-3 -3 -12 -4 -19 -1 -8 3 -5 6 6 6 11 1 17 -2 13 -5z m240 -160
c-3 -3 -12 -4 -19 -1 -8 3 -5 6 6 6 11 1 17 -2 13 -5z m7 -22 c13 -22 -16 -35
-87 -40 -103 -6 -109 12 -10 31 43 8 81 15 85 16 4 1 9 -3 12 -7z m-51 -89
c-13 -2 -33 -2 -45 0 -13 2 -3 4 22 4 25 0 35 -2 23 -4z m38 -56 c-16 -16 -25
-1 -10 16 8 8 16 11 18 5 2 -5 -2 -15 -8 -21z m-53 -14 c-10 -2 -26 -2 -35 0
-10 3 -2 5 17 5 19 0 27 -2 18 -5z m-11 -69 c-3 -3 -12 -4 -19 -1 -8 3 -5 6 6
6 11 1 17 -2 13 -5z m132 -8 c-2 -2 -24 -6 -49 -9 -30 -4 -38 -3 -25 3 19 8
83 14 74 6z m-134 -16 c-3 -5 -10 -10 -16 -10 -5 0 -9 5 -9 10 0 6 7 10 16 10
8 0 12 -4 9 -10z m75 -46 c-37 -8 -88 -9 -84 -2 3 4 26 7 52 7 26 -1 40 -3 32
-5z m-103 -10 c-3 -3 -12 -4 -19 -1 -8 3 -5 6 6 6 11 1 17 -2 13 -5z m110 -10
c-3 -3 -12 -4 -19 -1 -8 3 -5 6 6 6 11 1 17 -2 13 -5z m-70 -10 c-3 -3 -12 -4
-19 -1 -8 3 -5 6 6 6 11 1 17 -2 13 -5z m-1507 -579 c0 -5 -5 -3 -10 5 -5 8
-10 20 -10 25 0 6 5 3 10 -5 5 -8 10 -19 10 -25z m1360 -1 c0 -13 -4 -24 -10
-24 -5 0 -10 14 -10 31 0 17 4 28 10 24 6 -3 10 -17 10 -31z m-64 6 c0 -12 -4
-16 -9 -11 -5 5 -6 14 -3 20 10 15 12 14 12 -9z m34 -10 c0 -16 -4 -30 -8 -30
-4 0 -9 14 -10 30 -1 17 2 30 8 30 5 0 10 -13 10 -30z m-51 -27 c1 -7 -2 -13
-6 -13 -5 0 -9 15 -10 33 -1 26 0 28 7 12 5 -11 9 -26 9 -32z m-35 3 c2 -14
-1 -26 -5 -26 -5 0 -9 14 -9 32 0 36 10 32 14 -6z m-44 -1 c0 -13 -4 -26 -9
-29 -4 -3 -6 7 -3 22 5 24 4 26 -12 13 -9 -8 -15 -20 -12 -27 8 -21 -17 -12
-32 11 -10 16 -12 16 -8 3 3 -10 1 -18 -5 -18 -6 0 -9 8 -7 18 2 9 8 17 15 17
6 0 14 2 16 5 3 3 17 6 31 6 21 2 26 -3 26 -21z m-913 -27 c-3 -7 -5 -2 -5 12
0 14 2 19 5 13 2 -7 2 -19 0 -25z m740 -25 c-3 -10 -5 -2 -5 17 0 19 2 27 5
18 2 -10 2 -26 0 -35z m-62 2 c0 -19 -3 -35 -7 -35 -10 0 -10 54 -1 63 3 4 7
7 7 7 1 0 1 -16 1 -35z m43 4 c-1 -17 -4 -25 -8 -18 -6 8 -9 8 -13 -2 -3 -8
-6 1 -6 19 -1 21 4 32 13 32 10 0 14 -10 14 -31z m82 6 c0 -8 -3 -16 -7 -18
-5 -3 -8 5 -8 18 0 13 3 21 8 18 4 -2 7 -10 7 -18z m-153 -18 c1 -26 0 -28 -7
-12 -11 26 -12 45 -2 45 4 0 8 -15 9 -33z m119 13 c0 -11 -4 -20 -8 -20 -4 0
-8 9 -8 20 0 11 4 20 8 20 4 0 8 -9 8 -20z m-158 -31 c-1 -13 -7 -23 -13 -22
-13 3 -18 30 -11 50 10 24 29 1 24 -28z m-82 -4 c-1 -41 -16 -48 -16 -7 0 24
7 42 15 42 1 0 1 -16 1 -35z m44 5 c0 -16 -3 -30 -7 -30 -5 0 -8 14 -8 30 0
17 3 30 8 30 4 0 7 -13 7 -30z m-70 -24 c0 -8 -4 -17 -8 -20 -4 -2 -8 4 -8 15
0 10 4 19 8 19 4 0 8 -6 8 -14z"/>
<path d="M1471 2593 c-1 -12 4 -25 9 -28 12 -7 12 2 0 30 -8 19 -9 19 -9 -2z"/>
<path d="M1680 2560 c0 -29 4 -40 15 -40 20 0 29 23 21 55 -11 42 -36 31 -36
-15z"/>
<path d="M1790 2547 c0 -26 4 -33 20 -34 16 -1 20 4 20 33 0 27 -4 34 -20 34
-16 0 -20 -7 -20 -33z"/>
<path d="M1815 460 c-3 -5 -1 -10 4 -10 6 0 11 5 11 10 0 6 -2 10 -4 10 -3 0
-8 -4 -11 -10z"/>
<path d="M1552 390 c0 -14 2 -19 5 -12 2 6 2 18 0 25 -3 6 -5 1 -5 -13z"/>
<path d="M2240 2689 c0 -6 7 -8 16 -5 8 3 12 2 9 -4 -3 -6 1 -10 9 -10 9 0 16
7 16 15 0 9 -9 15 -25 15 -14 0 -25 -5 -25 -11z"/>
<path d="M2255 2640 c3 -5 13 -10 21 -10 8 0 14 5 14 10 0 6 -9 10 -21 10 -11
0 -17 -4 -14 -10z"/>
<path d="M2246 2595 c4 -8 10 -12 15 -9 5 3 9 0 9 -5 0 -6 5 -11 10 -11 6 0
10 9 10 20 0 15 -7 20 -25 20 -17 0 -23 -4 -19 -15z"/>
<path d="M2612 2540 c0 -14 2 -19 5 -12 2 6 2 18 0 25 -3 6 -5 1 -5 -13z"/>
<path d="M2250 2540 c0 -5 6 -10 13 -10 9 0 9 -2 -1 -9 -10 -6 -9 -10 7 -14
17 -4 21 -1 21 19 0 17 -6 24 -20 24 -11 0 -20 -4 -20 -10z"/>
<path d="M2340 2513 c0 -29 10 -53 22 -53 6 0 7 8 4 17 -6 16 -6 16 12 0 28
-25 42 -21 42 13 0 17 -4 30 -9 30 -4 0 -6 -12 -4 -27 l4 -28 -15 30 c-8 17
-15 23 -15 15 -1 -13 -2 -13 -11 0 -5 8 -10 11 -10 5 0 -5 -5 -3 -10 5 -8 12
-10 11 -10 -7z"/>
<path d="M2435 2485 c0 -21 5 -32 16 -32 11 -1 15 8 15 32 0 24 -4 33 -15 32
-11 0 -16 -11 -16 -32z"/>
<path d="M2484 2494 c3 -9 6 -23 6 -32 0 -14 2 -14 9 -3 7 11 10 10 18 -3 7
-14 9 -10 9 16 -1 28 -5 34 -25 36 -17 1 -22 -2 -17 -14z"/>
<path d="M2541 2490 c-1 -14 3 -32 9 -40 15 -24 17 -8 4 30 -11 30 -13 32 -13
10z"/>
<path d="M2271 2461 c-10 -6 -10 -10 -1 -16 13 -8 24 -1 19 14 -3 6 -10 7 -18
2z"/>
<path d="M2341 2424 c0 -11 3 -14 6 -6 3 7 2 16 -1 19 -3 4 -6 -2 -5 -13z"/>
<path d="M2265 2420 l-20 -9 20 0 c17 -1 17 -3 5 -11 -13 -8 -12 -10 3 -10 10
0 17 8 17 20 0 11 -1 20 -2 19 -2 0 -12 -4 -23 -9z"/>
<path d="M2460 2411 c0 -5 5 -13 10 -16 6 -3 10 -2 10 4 0 5 -4 13 -10 16 -5
3 -10 2 -10 -4z"/>
<path d="M2496 2405 c4 -8 8 -15 10 -15 2 0 4 7 4 15 0 8 -4 15 -10 15 -5 0
-7 -7 -4 -15z"/>
<path d="M2611 2394 c0 -11 3 -14 6 -6 3 7 2 16 -1 19 -3 4 -6 -2 -5 -13z"/>
<path d="M1990 1841 c0 -5 9 -7 20 -4 11 3 20 7 20 9 0 2 -9 4 -20 4 -11 0
-20 -4 -20 -9z"/>
<path d="M2265 1620 c-3 -5 -1 -10 4 -10 6 0 11 5 11 10 0 6 -2 10 -4 10 -3 0
-8 -4 -11 -10z"/>
<path d="M2190 1515 c0 -17 -6 -25 -17 -26 -14 0 -15 -2 -3 -6 8 -3 18 -10 21
-15 3 -5 6 9 7 32 1 22 0 40 -3 40 -3 0 -5 -11 -5 -25z"/>
<path d="M2270 1530 c0 -5 -9 -10 -21 -10 -11 0 -17 -4 -14 -10 3 -5 17 -10
31 -10 17 0 24 5 24 20 0 11 -4 20 -10 20 -5 0 -10 -4 -10 -10z"/>
<path d="M2068 1503 c-8 -10 -6 -12 13 -9 13 3 33 5 43 5 28 1 11 14 -20 16
-14 0 -30 -5 -36 -12z"/>
<path d="M2470 651 c0 -5 5 -13 10 -16 6 -3 10 -2 10 4 0 5 -4 13 -10 16 -5 3
-10 2 -10 -4z"/>
<path d="M2456 613 c-6 -14 -5 -15 5 -6 7 7 10 15 7 18 -3 3 -9 -2 -12 -12z"/>
<path d="M2556 605 c4 -8 8 -15 10 -15 2 0 4 7 4 15 0 8 -4 15 -10 15 -5 0 -7
-7 -4 -15z"/>
<path d="M2606 563 c-6 -14 -5 -15 5 -6 7 7 10 15 7 18 -3 3 -9 -2 -12 -12z"/>
<path d="M2500 534 c0 -8 5 -12 10 -9 6 3 10 10 10 16 0 5 -4 9 -10 9 -5 0
-10 -7 -10 -16z"/>
<path d="M2533 535 c-3 -9 -3 -18 -1 -21 3 -3 8 4 11 16 6 23 -1 27 -10 5z"/>
<path d="M2380 520 c0 -8 5 -22 10 -30 9 -13 10 -13 10 0 0 8 -5 22 -10 30 -9
13 -10 13 -10 0z"/>
<path d="M2495 489 c-10 -30 -2 -32 12 -3 6 13 7 24 3 24 -5 0 -12 -9 -15 -21z"/>
<path d="M2360 461 c0 -6 4 -13 10 -16 6 -3 7 1 4 9 -7 18 -14 21 -14 7z"/>
</g>
</svg>
