<?xml version="1.0" standalone="no"?>
<!DOCTYPE svg PUBLIC "-//W3C//DTD SVG 20010904//EN"
 "http://www.w3.org/TR/2001/REC-SVG-20010904/DTD/svg10.dtd">
<svg version="1.0" xmlns="http://www.w3.org/2000/svg"
 width="300.000000pt" height="300.000000pt" viewBox="0 0 300.000000 300.000000"
 preserveAspectRatio="xMidYMid meet">

<g transform="translate(0.000000,300.000000) scale(0.100000,-0.100000)"
fill="#000000" stroke="none">
<path d="M770 2811 c-126 -7 -159 -19 -179 -69 -8 -19 -11 -370 -9 -1260 l3
-1234 38 -34 37 -34 844 2 845 3 31 30 c16 16 35 46 40 66 7 25 9 459 8 1243
-3 1204 -3 1205 -24 1233 -41 55 -17 53 -796 57 -398 2 -775 1 -838 -3z m-75
-111 c17 -19 17 -21 0 -40 -22 -24 -35 -12 -35 33 0 32 10 34 35 7z m1663 -6
c0 -15 -4 -22 -10 -16 -5 5 -6 16 -2 25 9 23 12 21 12 -9z m-1625 -47 c-4 -7
1 -6 10 2 10 8 20 11 24 7 3 -3 1 -6 -6 -6 -8 0 -11 -6 -7 -16 4 -10 2 -13 -7
-8 -6 4 -9 3 -4 -1 4 -5 -2 -19 -14 -31 l-22 -23 -20 25 c-16 21 -17 28 -6 34
7 5 18 6 24 3 5 -4 7 -3 3 2 -10 10 11 37 23 29 5 -3 6 -11 2 -17z m1615 -25
c4 -47 1 -49 -33 -26 -23 15 -23 16 -7 45 22 38 36 32 40 -19z m-1557 -28 c17
-15 17 -19 3 -46 -17 -33 -49 -35 -68 -6 -8 13 -5 23 14 43 28 30 28 30 51 9z
m1517 -10 c38 -18 38 -21 8 -58 -23 -28 -24 -28 -50 -11 -30 20 -33 41 -9 67
19 22 13 21 51 2z m-812 -40 c8 -42 0 -53 -52 -65 -67 -15 -94 -12 -94 12 0
11 -7 27 -15 36 -24 23 -2 41 53 45 26 2 59 4 74 6 24 2 28 -2 34 -34z m135
26 c23 0 28 -5 31 -27 6 -47 -11 -73 -46 -72 -58 2 -81 13 -81 39 0 14 -6 31
-12 38 -25 26 -14 35 33 28 26 -3 59 -6 75 -6z m-774 -70 c-6 -11 -14 -20 -17
-21 -3 0 -13 -2 -23 -4 -29 -6 -38 27 -17 63 l19 32 26 -26 c21 -21 23 -28 12
-44z m457 28 c26 -51 21 -63 -34 -87 -45 -19 -52 -20 -65 -7 -8 8 -15 19 -15
25 0 6 -6 8 -12 6 -17 -6 -42 10 -34 23 3 5 33 20 66 32 33 12 63 27 66 31 8
14 11 11 28 -23z m438 5 c61 -23 68 -29 68 -53 0 -32 -33 -66 -52 -54 -7 5
-25 7 -40 5 -22 -2 -27 1 -22 13 4 12 0 16 -15 16 -24 0 -24 0 -11 35 7 18 7
33 0 46 -14 25 -9 24 72 -8z m484 -18 c4 -8 10 -13 14 -10 4 3 12 -1 18 -8 7
-9 2 -21 -18 -44 l-29 -32 -25 26 c-32 31 -32 37 -4 63 26 24 37 25 44 5z
m-1296 -45 c6 0 8 -5 4 -11 -4 -8 -9 -7 -15 2 -5 8 -9 11 -9 7 0 -28 -26 -48
-60 -47 -14 0 -19 3 -12 6 10 4 10 8 1 19 -8 10 -6 20 13 42 l23 29 22 -24
c12 -12 27 -23 33 -23z m962 -19 c27 -22 54 -41 60 -43 16 -6 -2 -68 -24 -81
-13 -9 -28 -2 -72 32 -51 39 -77 81 -42 68 9 -4 13 3 14 21 0 54 0 54 64 3z
m-747 -3 c13 7 24 0 30 -19 8 -24 -12 -49 -62 -79 -33 -20 -33 -20 -53 0 -11
11 -26 20 -33 20 -30 0 -24 14 21 48 26 19 51 42 56 50 8 13 11 13 23 -4 8
-10 16 -18 18 -16z m1015 10 c0 -6 7 -19 16 -29 14 -15 13 -19 -15 -39 l-31
-21 -24 28 c-21 24 -23 30 -10 44 8 9 12 18 10 20 -2 2 9 5 25 6 16 1 29 -3
29 -9z m-170 -88 c0 -5 19 -22 43 -37 31 -20 38 -28 25 -31 -22 -4 -22 -9 -3
-28 13 -13 12 -18 -8 -38 -51 -51 -54 -51 -76 -2 -11 25 -25 46 -30 46 -19 0
-12 38 9 45 11 3 19 9 19 13 -3 21 2 42 11 42 6 0 10 -4 10 -10z m-937 -41
c17 -18 17 -19 -8 -31 -19 -9 -22 -14 -14 -24 6 -8 8 -22 5 -31 -6 -14 -9 -15
-15 -4 -7 11 -12 8 -21 -10 -7 -13 -14 -25 -15 -27 -2 -2 -13 5 -24 15 -12 10
-31 20 -42 23 -19 5 -17 9 20 59 23 30 41 58 41 63 0 12 53 -11 73 -33z m483
-100 c50 -39 114 -152 114 -200 0 -30 9 -45 52 -88 42 -42 49 -54 38 -61 -8
-6 -11 -10 -6 -10 4 0 -25 -34 -65 -75 -40 -42 -76 -71 -79 -65 -4 6 -23 -8
-46 -32 -21 -24 -45 -44 -53 -46 -8 -2 -34 16 -58 40 -32 32 -46 40 -52 30
-10 -16 -85 57 -131 126 l-29 45 53 52 c42 42 54 61 60 95 4 24 16 55 26 70
11 16 20 35 20 43 0 26 70 90 116 107 1 0 19 -14 40 -31z m574 -76 l22 -67
-22 -18 c-18 -15 -70 -26 -70 -15 0 1 -9 27 -20 57 l-21 55 38 32 c20 17 40
30 44 27 4 -2 17 -34 29 -71z m-1164 44 c25 -22 26 -25 15 -63 -21 -66 -33
-85 -47 -73 -9 7 -19 7 -33 0 -45 -25 -51 -15 -30 46 10 31 19 64 19 73 0 19
19 40 36 40 7 0 25 -10 40 -23z m1190 -304 c-8 -20 -53 -16 -77 8 -16 16 -19
30 -17 71 3 50 4 51 48 68 l45 18 3 -76 c2 -41 1 -81 -2 -89z m-1219 139 c6
-4 13 -34 14 -66 l3 -60 -44 -18 c-23 -10 -44 -17 -46 -16 -1 2 -4 36 -7 76
-4 60 -2 74 12 82 19 11 52 12 68 2z m-201 -138 c13 -19 23 -24 40 -20 26 7
42 -9 19 -18 -34 -13 -37 -48 -11 -131 14 -43 24 -81 22 -82 -2 -2 -16 32 -31
74 -34 96 -59 145 -79 162 -9 8 -16 20 -16 27 0 24 39 15 56 -12z m1600 14 c4
-6 0 -16 -9 -23 -20 -14 -59 -92 -82 -163 -9 -29 -19 -52 -21 -50 -2 2 8 39
21 83 14 43 24 80 22 81 -1 0 -12 7 -24 13 -31 16 -29 30 4 28 20 -1 31 4 38
21 10 23 39 30 51 10z m-1376 -53 c0 -14 6 -41 14 -59 14 -35 7 -56 -20 -56
-6 0 -18 -10 -26 -22 -15 -22 -15 -22 -31 11 -9 19 -14 38 -10 44 4 6 1 7 -7
2 -9 -5 -10 -2 -6 11 3 11 2 25 -3 33 -13 21 29 52 82 60 4 0 7 -10 7 -24z
m1122 13 c3 -7 20 -12 41 -11 l36 1 -19 -52 c-10 -28 -20 -60 -22 -70 -4 -23
-34 -29 -70 -15 -29 12 -35 23 -19 34 6 3 6 17 -1 36 -6 16 -8 33 -4 36 3 4 6
1 6 -5 0 -27 18 -9 24 23 7 35 21 46 28 23z m135 -130 c-3 -8 -6 -5 -6 6 -1
11 2 17 5 13 3 -3 4 -12 1 -19z m-1179 -60 c31 -41 37 -57 30 -71 -5 -10 -13
-15 -18 -12 -5 3 -15 -8 -22 -25 l-13 -30 -46 68 -46 68 21 27 c29 39 50 34
94 -25z m1038 22 c30 0 30 -5 -4 -56 -15 -23 -32 -50 -37 -59 -10 -16 -15 -16
-47 -6 -20 7 -39 18 -41 25 -3 8 8 36 25 64 28 45 34 49 55 41 14 -5 35 -9 49
-9z m119 -109 c-21 -43 -29 -39 -8 4 9 19 18 33 21 31 2 -2 -4 -18 -13 -35z
m-1091 -14 c-1 -9 2 -14 7 -11 5 3 9 0 9 -6 0 -7 8 -9 22 -4 20 6 21 5 10 -8
-10 -13 -9 -16 9 -21 21 -6 21 -7 6 -29 -8 -13 -20 -22 -27 -20 -8 2 -8 -3 0
-19 21 -39 1 -32 -52 16 -29 27 -54 49 -56 50 -9 6 20 55 33 55 8 0 15 5 15
11 0 6 6 9 13 6 6 -2 11 -11 11 -20z m1047 0 c-10 -9 -11 -8 -5 6 3 10 9 15
12 12 3 -3 0 -11 -7 -18z m-212 0 c6 -8 9 -16 6 -19 -3 -2 9 -3 25 0 48 7 42
-7 -32 -77 l-46 -43 -31 28 c-17 15 -31 33 -31 40 0 12 77 84 91 84 3 0 12 -6
18 -13z m-1089 -17 c6 -11 8 -20 6 -20 -3 0 -10 9 -16 20 -6 11 -8 20 -6 20 3
0 10 -9 16 -20z m30 -50 c6 -11 8 -20 6 -20 -3 0 -10 9 -16 20 -6 11 -8 20 -6
20 3 0 10 -9 16 -20z m1232 -2 c-7 -7 -12 -8 -12 -2 0 6 3 14 7 17 3 4 9 5 12
2 2 -3 -1 -11 -7 -17z m-1167 -36 c-6 -6 -35 18 -35 29 0 5 9 1 20 -8 11 -9
17 -19 15 -21z m335 -7 c17 -9 30 -20 30 -26 0 -6 -4 -8 -9 -5 -9 6 -7 -29 4
-63 8 -28 3 -27 -72 11 -52 26 -63 36 -63 56 0 14 7 33 16 43 17 19 31 16 94
-16z m540 11 c0 -8 9 -20 20 -27 27 -19 17 -31 -57 -67 l-61 -31 -15 22 c-34
53 -31 61 34 95 61 31 79 33 79 8z m311 7 c-15 -28 -40 -59 -41 -50 0 8 41 67
47 67 2 0 -1 -8 -6 -17z m-51 -33 c-9 -51 -28 -74 -46 -59 -8 6 -14 8 -14 4 0
-5 -3 -6 -6 -2 -9 9 24 39 36 32 6 -3 7 1 4 9 -3 9 -2 16 4 16 5 0 12 9 15 20
9 36 15 21 7 -20z m-1151 -14 c-2 -2 -13 8 -23 22 l-19 27 24 -22 c12 -12 21
-24 18 -27z m37 12 c5 -7 3 -8 -6 -3 -9 5 -11 4 -6 -3 4 -7 13 -12 19 -12 7 0
18 -9 25 -20 7 -11 18 -20 25 -20 7 0 21 -11 31 -25 10 -13 22 -22 27 -19 5 3
9 1 9 -5 0 -16 -18 -22 -23 -9 -2 7 -7 11 -10 8 -13 -12 12 -32 42 -35 33 -2
100 -58 83 -69 -5 -3 -16 4 -25 15 -20 23 -42 25 -33 3 4 -11 2 -15 -8 -11 -7
3 -19 0 -25 -6 -8 -8 -14 -8 -23 1 -9 9 -8 12 7 12 17 0 16 3 -7 28 -14 15
-23 33 -20 41 3 10 0 12 -11 8 -9 -3 -18 1 -21 10 -9 21 3 31 14 13 6 -8 10
-10 10 -5 0 6 -5 17 -10 25 -5 8 -10 11 -10 6 0 -5 -11 3 -24 19 -17 20 -26
24 -31 15 -5 -9 -4 -11 3 -6 7 4 12 0 12 -10 0 -16 -1 -16 -20 1 -11 10 -20
29 -20 42 0 24 14 31 26 11z m627 -11 c29 -13 34 -22 15 -33 -6 -4 -8 -3 -5 3
7 11 -13 23 -38 23 -18 0 -23 -28 -12 -62 10 -31 37 -46 37 -20 0 14 2 14 9 3
5 -8 16 -11 25 -8 10 4 16 1 16 -7 0 -8 -7 -16 -15 -20 -10 -4 -15 -20 -15
-50 0 -52 -33 -145 -58 -164 -9 -7 -34 -12 -56 -10 -37 2 -40 5 -67 63 -19 40
-29 76 -29 108 0 33 -5 49 -15 53 -8 4 -15 16 -15 27 0 16 3 18 12 9 8 -8 17
-8 31 -1 13 8 17 8 13 1 -10 -16 10 -24 23 -9 16 20 18 79 4 84 -7 3 -14 -4
-14 -14 -1 -16 -2 -16 -6 0 -5 19 -23 24 -23 5 0 -6 -3 -8 -7 -4 -30 30 129
49 190 23z m417 -76 c0 -9 -18 -36 -40 -59 -28 -29 -36 -42 -25 -42 9 0 15 -6
13 -12 -3 -7 -19 -13 -37 -13 -17 0 -35 -4 -39 -10 -4 -5 -16 -17 -27 -25 -11
-8 -7 0 8 17 21 23 25 32 14 36 -7 3 -19 -4 -26 -14 -12 -20 -31 -18 -31 3 0
6 3 8 7 5 10 -11 42 44 36 60 -5 13 -3 13 15 2 26 -16 40 -5 22 16 -11 13 -10
14 5 9 10 -4 20 -1 25 7 7 10 11 8 19 -11 9 -24 10 -24 10 8 1 18 5 31 10 28
5 -3 12 1 15 10 7 19 26 9 26 -15z m-890 -35 c0 -3 -4 -8 -10 -11 -5 -3 -10
-1 -10 4 0 6 5 11 10 11 6 0 10 -2 10 -4z m135 -76 c-15 -29 -35 -40 -35 -19
0 5 5 7 12 3 8 -5 9 -2 5 9 -3 9 -2 19 4 23 6 4 5 11 -3 22 -12 14 -10 14 10
3 21 -11 21 -13 7 -41z m525 46 c0 -2 -8 -10 -17 -17 -16 -13 -17 -12 -4 4 13
16 21 21 21 13z m-62 -31 c-2 -6 -7 -10 -13 -10 -5 0 -17 -5 -25 -9 -9 -6 -7
-1 4 13 19 21 41 25 34 6z m-403 -5 c-3 -5 -11 -10 -16 -10 -6 0 -7 5 -4 10 3
6 11 10 16 10 6 0 7 -4 4 -10z m471 -8 c-3 -3 3 -11 14 -19 11 -8 20 -20 20
-26 0 -7 -7 -4 -14 6 -8 10 -20 15 -30 11 -15 -6 -17 3 -7 44 1 2 6 0 12 -3 6
-4 8 -10 5 -13z m-640 -17 c-3 -9 1 -18 9 -21 8 -4 15 -11 15 -17 0 -5 -9 -2
-19 7 -17 15 -19 46 -4 46 3 0 2 -7 -1 -15z m61 -17 c2 -17 0 -19 -7 -8 -5 8
-6 18 -4 22 8 12 10 10 11 -14z m539 7 c-1 -8 -8 -21 -16 -28 -10 -10 -11 -9
-4 3 5 8 9 18 10 23 3 14 4 17 8 17 2 0 3 -7 2 -15z m-406 -35 c0 -5 -4 -10
-9 -10 -6 0 -13 5 -16 10 -3 6 1 10 9 10 9 0 16 -4 16 -10z m364 -5 c-4 -8
-10 -12 -15 -9 -14 8 -10 24 6 24 9 0 12 -6 9 -15z m-459 -35 c-3 -5 -1 -19 5
-31 13 -24 4 -41 -10 -19 -8 12 -10 10 -10 -7 0 -20 4 -22 37 -17 l37 4 -25
-27 c-13 -15 -30 -34 -37 -41 -26 -28 -85 -63 -116 -69 -17 -3 -36 -10 -43
-15 -16 -12 -64 -18 -57 -7 3 5 0 9 -5 9 -6 0 -11 -4 -11 -8 0 -5 -6 -9 -12
-9 -7 -1 -51 -4 -98 -7 -50 -4 -91 -2 -100 4 -11 7 8 10 62 10 84 0 178 16
178 31 0 13 -27 11 -36 -2 -4 -7 -9 -8 -17 0 -7 7 -16 7 -30 0 -12 -7 -17 -7
-13 -1 3 6 0 13 -6 16 -7 3 -2 3 11 0 16 -4 21 -3 17 5 -4 6 -4 11 1 10 19 -3
66 1 61 6 -8 8 85 99 102 100 8 0 22 -3 31 -7 11 -5 22 -2 29 7 9 11 9 15 1
15 -6 0 -11 -5 -11 -12 0 -6 -3 -8 -6 -5 -4 4 -1 13 5 21 7 8 9 20 5 27 -4 7
-2 10 7 7 8 -3 13 -12 11 -19 -2 -8 0 -10 5 -6 4 5 8 12 9 15 2 20 17 41 25
36 5 -3 7 -9 4 -14z m583 -12 c12 16 13 15 7 -2 -3 -10 0 -25 6 -32 6 -7 8
-18 4 -24 -3 -5 -1 -10 4 -10 6 0 11 3 11 8 0 4 11 7 24 7 13 0 23 -2 21 -4
-3 -2 7 -12 20 -23 32 -25 33 -43 3 -28 -23 11 -23 11 1 -9 24 -22 47 -28 36
-11 -3 6 1 7 9 4 9 -3 16 -9 16 -13 0 -10 96 -39 154 -47 35 -5 46 -10 42 -21
-5 -12 1 -13 27 -8 30 6 31 5 13 -10 -11 -8 -40 -15 -65 -15 -25 -1 -71 -3
-101 -5 -40 -2 -45 -1 -20 4 l35 7 -43 7 c-24 4 -48 5 -53 1 -5 -3 -16 0 -24
6 -8 6 -20 8 -26 4 -8 -5 -9 -3 -4 6 6 10 4 12 -8 7 -10 -4 -37 5 -65 20 -50
27 -138 110 -128 120 3 4 6 0 6 -8 1 -18 30 19 30 37 0 7 5 25 11 40 l10 28
17 -27 c16 -24 19 -25 30 -9z m-8 -178 c0 -5 -2 -10 -4 -10 -3 0 -8 5 -11 10
-3 6 -1 10 4 10 6 0 11 -4 11 -10z m-910 -10 c0 -5 -10 -10 -22 -10 -19 0 -20
2 -8 10 19 13 30 13 30 0z m-213 -6 c-3 -3 -12 -4 -19 -1 -8 3 -5 6 6 6 11 1
17 -2 13 -5z m1663 2 c0 -2 -7 -6 -15 -10 -8 -3 -15 -1 -15 4 0 6 7 10 15 10
8 0 15 -2 15 -4z m-1503 -12 c-3 -3 -12 -4 -19 -1 -8 3 -5 6 6 6 11 1 17 -2
13 -5z m1413 -15 c0 -5 -4 -9 -10 -9 -5 0 -10 7 -10 16 0 8 5 12 10 9 6 -3 10
-10 10 -16z m-645 -69 c199 -12 245 -19 245 -34 -1 -31 -14 -56 -31 -56 -16 0
-19 -7 -17 -37 1 -37 1 -37 5 -5 3 24 9 32 24 32 11 0 23 10 28 23 8 21 9 20
16 -11 7 -35 -13 -122 -28 -122 -5 0 -42 -20 -81 -44 -72 -43 -79 -45 -231
-61 -27 -3 -80 -9 -117 -14 -56 -6 -72 -4 -105 12 -21 11 -42 26 -46 33 -11
19 -28 18 -21 -1 4 -9 0 -15 -8 -15 -32 0 -49 28 -69 115 -13 57 -28 96 -40
107 -19 16 -19 17 12 39 17 12 45 23 63 25 17 1 47 10 66 18 25 11 54 14 100
11 36 -3 141 -10 235 -15z m518 -258 c-1 -5 6 -8 16 -5 30 8 34 -15 6 -33 -13
-9 -22 -20 -19 -25 12 -20 -14 -7 -34 16 -27 30 -27 41 -4 54 20 12 38 8 35
-7z m-1209 -29 c9 -22 -4 -63 -20 -63 -8 0 -17 7 -20 15 -4 8 -12 15 -20 15
-19 0 -17 10 7 36 22 24 44 23 53 -3z m1304 -26 l22 -23 -20 -22 c-11 -12 -20
-26 -20 -33 0 -8 -4 -8 -15 1 -8 7 -12 17 -8 23 3 5 2 8 -3 4 -5 -3 -18 1 -29
9 -10 8 -13 14 -7 14 7 0 11 4 10 9 -3 9 30 40 43 41 3 0 15 -10 27 -23z
m-1356 -36 c22 -19 22 -30 3 -58 -14 -20 -19 -21 -43 -11 -33 14 -61 38 -44
38 6 0 19 14 27 30 16 31 22 31 57 1z m1448 -52 c0 -12 -27 -29 -35 -21 -5 4
-5 2 -2 -4 4 -7 0 -17 -8 -24 -15 -12 -21 -4 -16 23 1 5 -2 6 -7 3 -4 -2 -14
-1 -21 3 -11 7 -11 13 -1 32 7 13 18 27 23 31 10 6 67 -30 67 -43z m-470 23
c0 -4 -12 -9 -27 -10 -22 -1 -24 0 -13 8 18 12 40 13 40 2z m67 0 c10 -6 10
-15 1 -40 -7 -18 -16 -32 -21 -32 -4 0 -6 4 -3 9 3 5 -1 11 -9 15 -18 6 -27
-7 -19 -27 3 -9 12 -13 20 -10 8 3 14 0 14 -6 0 -6 -3 -11 -8 -11 -4 0 -38 -7
-77 -15 -68 -14 -71 -14 -102 8 -44 30 -60 67 -37 84 20 14 74 18 74 5 0 -4
-12 -8 -27 -8 -19 1 -29 -5 -31 -17 -3 -14 1 -18 15 -14 46 14 111 18 117 8 5
-7 -3 -12 -21 -13 -73 -4 -85 -6 -96 -18 -9 -10 -9 -11 2 -5 9 5 12 4 7 -3 -4
-7 -2 -12 3 -12 6 0 11 6 11 13 0 7 3 8 8 2 9 -13 62 -16 62 -4 0 4 14 6 31 4
24 -3 29 0 25 11 -3 8 -9 20 -12 28 -4 10 3 16 22 18 32 4 43 24 17 31 -16 4
-16 5 2 6 11 0 26 -3 32 -7z m-687 -12 c115 -18 110 -16 98 -53 -12 -35 -26
-57 -36 -55 -4 1 -19 -4 -33 -9 -25 -11 -109 3 -109 18 0 3 -11 4 -24 2 -20
-4 -25 1 -39 43 -9 27 -13 52 -11 56 7 11 76 10 154 -2z m560 0 c0 -5 -7 -7
-15 -4 -8 4 -15 8 -15 10 0 2 7 4 15 4 8 0 15 -4 15 -10z m-982 -36 c28 -19
28 -27 -1 -58 l-24 -25 -31 26 -32 26 23 22 c27 28 36 29 65 9z m814 -22 c14
-36 14 -40 -6 -64 -20 -24 -26 -26 -124 -26 -115 -1 -114 -1 -116 72 -1 38 1
41 29 47 17 3 69 6 116 8 l86 2 15 -39z m714 12 c-3 -8 -2 -12 4 -9 6 3 10 -1
10 -10 0 -9 -4 -14 -8 -11 -5 3 -9 -1 -9 -9 0 -8 4 -12 9 -9 17 11 7 -14 -13
-32 -11 -10 -19 -14 -17 -9 5 15 -28 56 -38 47 -5 -4 4 8 20 26 32 34 52 42
42 16z m-1600 -69 c-3 -9 0 -12 10 -8 7 3 14 0 14 -6 0 -6 -4 -11 -9 -11 -5 0
-17 -8 -26 -17 -20 -19 -51 -6 -49 21 2 13 -1 14 -12 5 -8 -6 -14 -8 -14 -3 0
4 12 18 27 30 21 17 32 20 46 12 10 -5 16 -16 13 -23z m-62 -51 c21 -21 20
-34 -3 -34 -17 0 -31 18 -31 41 0 14 17 11 34 -7z"/>
<path d="M1490 2229 c-29 -12 -58 -37 -71 -61 -8 -14 -6 -16 8 -11 16 6 16 4
-1 -15 -21 -24 -32 -29 -20 -10 5 7 3 8 -5 4 -7 -5 -10 -10 -7 -13 3 -3 -2
-19 -10 -35 -8 -16 -16 -47 -16 -69 0 -31 -6 -44 -24 -56 l-23 -15 20 -40 21
-41 -29 20 c-15 11 -34 18 -40 16 -24 -9 -12 -38 36 -93 41 -45 51 -52 64 -42
12 10 18 8 32 -15 10 -15 18 -33 18 -40 0 -7 3 -11 5 -8 3 3 13 -2 23 -11 25
-22 50 -11 88 40 19 25 39 42 47 39 7 -2 38 20 70 51 49 47 55 57 44 71 -17
20 -40 19 -57 -2 -8 -11 -7 -4 4 20 17 37 16 38 -5 53 -16 11 -22 25 -22 53 0
46 -39 127 -88 180 -33 35 -40 39 -62 30z m123 -211 c15 -55 -39 -139 -98
-154 -56 -14 -125 61 -125 137 l0 36 109 -1 c95 -1 111 -3 114 -18z"/>
<path d="M1413 2004 c-10 -26 31 -58 62 -50 22 6 25 9 15 21 -7 8 -25 21 -42
29 -26 13 -30 13 -35 0z"/>
<path d="M1547 1994 c-30 -16 -32 -37 -3 -42 20 -4 56 25 56 45 0 17 -18 16
-53 -3z"/>
<path d="M736 1837 c3 -10 9 -15 12 -12 3 3 0 11 -7 18 -10 9 -11 8 -5 -6z"/>
<path d="M1480 1350 c0 -20 19 -23 32 -5 9 12 0 25 -18 25 -8 0 -14 -9 -14
-20z"/>
<path d="M1447 1301 c-40 -13 -47 -19 -43 -36 30 -122 43 -148 82 -156 31 -6
71 11 57 24 -3 4 -1 7 6 7 7 0 9 5 6 10 -3 6 -1 10 5 10 6 0 9 4 5 9 -3 5 1
29 10 53 19 57 19 68 -4 68 -11 0 -22 4 -25 9 -10 16 -51 17 -99 2z"/>
<path d="M1881 1274 c0 -11 3 -14 6 -6 3 7 2 16 -1 19 -3 4 -6 -2 -5 -13z"/>
<path d="M1207 1054 c5 -13 3 -15 -7 -9 -8 5 -11 4 -7 -2 4 -6 -3 -13 -15 -16
-12 -4 -19 -9 -16 -12 3 -3 22 3 43 14 35 18 36 20 16 30 -17 10 -20 9 -14 -5z"/>
<path d="M1056 1019 l-28 -30 25 12 c14 6 29 18 32 27 9 25 0 23 -29 -9z"/>
<path d="M1132 1008 c2 -6 10 -14 16 -16 7 -2 10 2 6 12 -7 18 -28 22 -22 4z"/>
<path d="M1080 983 c-21 -8 -52 -45 -44 -52 4 -3 9 0 11 7 3 6 10 12 17 12 18
0 66 24 66 33 0 8 -28 8 -50 0z"/>
<path d="M1762 1099 c-7 -11 -11 -24 -8 -27 10 -9 28 15 24 32 -2 14 -5 13
-16 -5z"/>
<path d="M1770 1050 c0 -5 7 -10 15 -10 8 0 15 -4 15 -10 0 -5 6 -10 14 -10 7
0 19 -7 26 -15 16 -19 27 -19 27 -1 0 8 -6 12 -14 9 -7 -3 -16 2 -19 11 -3 9
-12 16 -20 16 -8 0 -14 5 -14 10 0 6 -7 10 -15 10 -8 0 -15 -4 -15 -10z"/>
<path d="M1880 979 c-11 -8 -8 -9 15 -5 21 5 26 4 15 -3 -18 -12 -6 -26 16
-17 13 5 14 9 4 21 -15 18 -29 19 -50 4z"/>
<path d="M1985 950 c-48 -8 -34 -16 53 -28 47 -7 62 -6 62 4 0 16 -28 26 -54
19 -17 -5 -18 -4 -6 4 18 13 11 13 -55 1z"/>
<path d="M2120 924 c0 -8 5 -12 10 -9 6 3 10 10 10 16 0 5 -4 9 -10 9 -5 0
-10 -7 -10 -16z"/>
<path d="M1230 709 l5 -61 79 -5 c57 -3 81 -1 87 8 5 9 12 10 21 3 23 -18 58
-15 58 5 0 10 9 21 21 24 17 5 20 12 17 44 -3 33 -7 38 -30 41 -27 3 -28 1
-29 -40 -1 -24 -1 -50 0 -58 3 -30 -16 13 -23 53 -5 27 -12 37 -26 37 -14 0
-20 -10 -25 -51 -5 -39 -10 -49 -22 -45 -8 3 -19 6 -24 6 -5 0 -9 5 -9 10 0 6
7 10 15 10 8 0 15 7 15 15 0 8 -7 15 -15 15 -8 0 -15 5 -15 11 0 7 9 9 21 6
15 -4 19 -1 17 11 -3 14 -17 18 -73 20 l-70 2 5 -61z m270 11 c0 -5 -5 -10
-11 -10 -5 0 -7 5 -4 10 3 6 8 10 11 10 2 0 4 -4 4 -10z m-203 -52 c-3 -7 -5
-2 -5 12 0 14 2 19 5 13 2 -7 2 -19 0 -25z"/>
<path d="M1530 704 l0 -65 46 4 c25 2 50 10 55 18 6 10 9 10 9 2 0 -18 27 -16
34 3 3 8 2 12 -4 9 -12 -8 -13 1 -1 42 11 37 -1 53 -41 53 -27 0 -28 -2 -28
-54 0 -49 -2 -54 -20 -49 -23 6 -27 23 -5 23 8 0 15 5 15 10 0 6 -7 13 -15 16
-8 4 -15 11 -15 16 0 6 7 8 15 4 10 -4 15 1 15 14 0 16 -7 20 -30 20 l-30 0 0
-66z m107 14 c-3 -7 -5 -2 -5 12 0 14 2 19 5 13 2 -7 2 -19 0 -25z"/>
<path d="M1693 753 c-3 -10 -8 -22 -11 -27 -3 -5 1 -6 8 -1 10 6 12 4 7 -8 -5
-12 -1 -17 13 -17 11 0 20 -4 20 -10 0 -5 -7 -7 -15 -4 -10 4 -15 0 -15 -15 0
-17 6 -21 30 -21 28 0 30 3 30 35 0 28 -4 35 -20 35 -11 0 -20 4 -20 9 0 5 9
7 20 4 15 -4 20 0 20 16 0 17 -6 21 -30 21 -20 0 -33 -6 -37 -17z"/>
<path d="M1240 621 c0 -6 4 -13 10 -16 6 -3 7 1 4 9 -7 18 -14 21 -14 7z"/>
<path d="M1395 590 c-3 -6 0 -17 9 -25 10 -11 17 -12 22 -4 4 8 9 7 16 -2 8
-11 10 -12 15 -1 4 10 10 9 26 -5 11 -10 17 -12 13 -5 -4 7 -1 12 8 12 9 0 16
-4 16 -10 0 -5 5 -10 10 -10 6 0 10 8 10 18 0 10 3 13 8 6 4 -5 17 -10 28 -10
18 0 20 4 12 21 -8 18 -18 21 -76 21 -37 0 -70 -4 -74 -10 -5 -7 -8 -7 -8 2 0
14 -26 16 -35 2z"/>
<path d="M1085 451 c-10 -16 2 -20 120 -37 28 -3 60 -6 72 -5 17 0 21 -3 16
-17 -6 -16 -6 -16 10 0 21 21 22 38 2 39 -30 3 -51 6 -100 14 -70 12 -68 12
-84 1 -11 -8 -13 -8 -7 2 4 7 2 12 -8 12 -8 0 -17 -4 -21 -9z"/>
<path d="M1137 399 c3 -11 10 -20 17 -21 21 -2 31 -4 64 -12 22 -5 38 -4 45 3
18 18 -10 30 -60 27 -23 -2 -40 0 -38 4 3 4 -4 10 -14 13 -14 3 -17 0 -14 -14z"/>
<path d="M1537 424 c-2 -2 -32 -4 -68 -6 -54 -2 -65 -5 -62 -18 2 -8 15 -16
28 -16 14 -1 23 2 20 6 -6 9 15 8 30 -2 6 -4 17 -3 25 2 8 5 22 5 32 -1 12 -7
18 -6 18 1 0 6 5 8 10 5 9 -6 13 6 8 22 -3 7 -35 12 -41 7z"/>
<path d="M1467 373 c-4 -6 -18 -8 -32 -5 -20 3 -25 0 -25 -17 0 -20 4 -22 43
-17 23 3 63 5 90 5 40 1 47 4 47 21 0 18 -5 20 -42 14 -24 -3 -48 -7 -55 -9
-6 -2 -13 1 -16 8 -2 7 -5 8 -10 0z"/>
</g>
</svg>
